<?xml version="1.0" encoding="UTF-8" standalone="no"?><!DOCTYPE svg PUBLIC "-//W3C//DTD SVG 1.1//EN" "http://www.w3.org/Graphics/SVG/1.1/DTD/svg11.dtd"><svg width="100%" height="100%" viewBox="0 0 80 80" version="1.1" xmlns="http://www.w3.org/2000/svg" xmlns:xlink="http://www.w3.org/1999/xlink" xml:space="preserve" xmlns:serif="http://www.serif.com/" style="fill-rule:evenodd;clip-rule:evenodd;stroke-linejoin:round;stroke-miterlimit:1.41421;"><rect id="calculator" x="0" y="0" width="80" height="80" style="fill:#31353d;"/><g><path d="M57.311,14.115l-33.433,0c-1.902,0 -3.45,1.548 -3.45,3.45l0,46.876c0,1.903 1.548,3.45 3.45,3.45l26.651,0l0,-1.592l-26.651,0c-1.024,0 -1.858,-0.833 -1.858,-1.858l0,-46.876c0,-1.024 0.834,-1.857 1.858,-1.857l33.433,0c1.024,0 1.857,0.833 1.857,1.857l0,46.876c0,1.025 -0.833,1.858 -1.857,1.858l-2.536,0l0,1.592l2.536,0c1.902,0 3.449,-1.547 3.449,-3.45l0,-46.876c0,-1.902 -1.547,-3.45 -3.449,-3.45Z" style="fill:#fff;fill-rule:nonzero;"/><path d="M24.851,28.82l0,-6.023c0,-0.439 0.357,-0.796 0.796,-0.796l29.895,0c0.439,0 0.796,0.357 0.796,0.796l0,6.023c0,0.438 -0.357,0.795 -0.796,0.795l-29.895,0c-0.439,0 -0.796,-0.357 -0.796,-0.795Zm33.079,0l0,-6.023c0,-1.317 -1.071,-2.388 -2.388,-2.388l-29.895,0c-1.317,0 -2.388,1.071 -2.388,2.388l0,6.023c0,1.316 1.071,2.388 2.388,2.388l29.895,0c1.317,0 2.388,-1.072 2.388,-2.388Z" style="fill:#fff;fill-rule:nonzero;"/><rect x="45.223" y="25.012" width="9.022" height="1.592" style="fill:#fff;fill-rule:nonzero;"/><path d="M48.805,49.154c0,-1.601 1.303,-2.903 2.904,-2.903c1.601,0 2.904,1.302 2.904,2.903l0,10.098c0,1.601 -1.303,2.904 -2.904,2.904c-1.601,0 -2.904,-1.303 -2.904,-2.904l0,-10.098Zm2.904,14.594c2.479,0 4.496,-2.017 4.496,-4.496l0,-10.098c0,-2.478 -2.017,-4.495 -4.496,-4.495c-2.479,0 -4.496,2.017 -4.496,4.495l0,10.098c0,2.479 2.017,4.496 4.496,4.496Z" style="fill:#fff;fill-rule:nonzero;"/><path d="M40.469,62.156c-1.463,0 -2.653,-1.19 -2.653,-2.653c0,-1.463 1.19,-2.654 2.653,-2.654c1.463,0 2.653,1.191 2.653,2.654c0,1.463 -1.19,2.653 -2.653,2.653Zm0,-6.899c-2.341,0 -4.246,1.905 -4.246,4.246c0,2.341 1.905,4.245 4.246,4.245c2.341,0 4.246,-1.904 4.246,-4.245c0,-2.341 -1.905,-4.246 -4.246,-4.246Z" style="fill:#fff;fill-rule:nonzero;"/><path d="M29.229,62.156c-1.463,0 -2.653,-1.19 -2.653,-2.653c0,-1.463 1.19,-2.654 2.653,-2.654c1.463,0 2.653,1.191 2.653,2.654c0,1.463 -1.19,2.653 -2.653,2.653Zm0,-6.899c-2.341,0 -4.245,1.905 -4.245,4.246c0,2.341 1.904,4.245 4.245,4.245c2.341,0 4.246,-1.904 4.246,-4.245c0,-2.341 -1.905,-4.246 -4.246,-4.246Z" style="fill:#fff;fill-rule:nonzero;"/><path d="M40.469,51.558c-1.463,0 -2.653,-1.191 -2.653,-2.654c0,-1.463 1.19,-2.653 2.653,-2.653c1.463,0 2.653,1.19 2.653,2.653c0,1.463 -1.19,2.654 -2.653,2.654Zm0,-6.899c-2.341,0 -4.246,1.904 -4.246,4.245c0,2.341 1.905,4.245 4.246,4.245c2.341,0 4.246,-1.904 4.246,-4.245c0,-2.341 -1.905,-4.245 -4.246,-4.245Z" style="fill:#fff;fill-rule:nonzero;"/><path d="M29.229,51.558c-1.463,0 -2.653,-1.191 -2.653,-2.654c0,-1.463 1.19,-2.653 2.653,-2.653c1.463,0 2.653,1.19 2.653,2.653c0,1.463 -1.19,2.654 -2.653,2.654Zm0,-6.899c-2.341,0 -4.245,1.904 -4.245,4.245c0,2.341 1.904,4.245 4.245,4.245c2.341,0 4.246,-1.904 4.246,-4.245c0,-2.341 -1.905,-4.245 -4.246,-4.245Z" style="fill:#fff;fill-rule:nonzero;"/><path d="M40.469,40.959c-1.463,0 -2.653,-1.191 -2.653,-2.654c0,-1.463 1.19,-2.653 2.653,-2.653c1.463,0 2.653,1.19 2.653,2.653c0,1.463 -1.19,2.654 -2.653,2.654Zm0,-6.899c-2.341,0 -4.246,1.904 -4.246,4.245c0,2.341 1.905,4.245 4.246,4.245c2.341,0 4.246,-1.904 4.246,-4.245c0,-2.341 -1.905,-4.245 -4.246,-4.245Z" style="fill:#fff;fill-rule:nonzero;"/><path d="M51.709,40.959c-1.463,0 -2.653,-1.191 -2.653,-2.654c0,-1.463 1.19,-2.653 2.653,-2.653c1.463,0 2.654,1.19 2.654,2.653c0,1.463 -1.191,2.654 -2.654,2.654Zm0,-6.899c-2.341,0 -4.245,1.904 -4.245,4.245c0,2.341 1.904,4.245 4.245,4.245c2.341,0 4.245,-1.904 4.245,-4.245c0,-2.341 -1.904,-4.245 -4.245,-4.245Z" style="fill:#fff;fill-rule:nonzero;"/><path d="M29.229,40.959c-1.463,0 -2.653,-1.191 -2.653,-2.654c0,-1.463 1.19,-2.653 2.653,-2.653c1.463,0 2.653,1.19 2.653,2.653c0,1.463 -1.19,2.654 -2.653,2.654Zm0,-6.899c-2.341,0 -4.245,1.904 -4.245,4.245c0,2.341 1.904,4.245 4.245,4.245c2.341,0 4.246,-1.904 4.246,-4.245c0,-2.341 -1.905,-4.245 -4.246,-4.245Z" style="fill:#fff;fill-rule:nonzero;"/></g></svg>