<?xml version="1.0" encoding="UTF-8" standalone="no"?><!DOCTYPE svg PUBLIC "-//W3C//DTD SVG 1.1//EN" "http://www.w3.org/Graphics/SVG/1.1/DTD/svg11.dtd"><svg width="100%" height="100%" viewBox="0 0 80 80" version="1.1" xmlns="http://www.w3.org/2000/svg" xmlns:xlink="http://www.w3.org/1999/xlink" xml:space="preserve" xmlns:serif="http://www.serif.com/" style="fill-rule:evenodd;clip-rule:evenodd;stroke-linecap:round;stroke-linejoin:round;stroke-miterlimit:1.5;"><rect id="chat" x="0" y="0" width="80" height="80" style="fill:#31353d;"/><path d="M41.215,52.672c0,-2.502 -2.031,-4.533 -4.533,-4.533l-23.77,0c-2.502,0 -4.533,2.031 -4.533,4.533l0,9.067c0,2.502 2.031,4.533 4.533,4.533l6.139,0l-4.105,7.771l9.03,-7.771l12.706,0c2.502,0 4.533,-2.031 4.533,-4.533l0,-9.067Z" style="fill:none;stroke:#e3dddb;stroke-width:1px;"/><path d="M40.486,11.809c0,-2.502 2.031,-4.533 4.533,-4.533l23.77,0c2.502,0 4.533,2.031 4.533,4.533l0,9.067c0,2.501 -2.031,4.533 -4.533,4.533l-6.139,0l4.105,7.771l-9.03,-7.771l-12.706,0c-2.502,0 -4.533,-2.032 -4.533,-4.533l0,-9.067Z" style="fill:none;stroke:#e3dddb;stroke-width:1px;"/><text x="14.117px" y="59.576px" style="font-family:'ArialMT', 'Arial', sans-serif;font-size:25.144px;fill:#e3dddb;">...</text><text x="47.795px" y="19.579px" style="font-family:'ArialMT', 'Arial', sans-serif;font-size:9.852px;fill:#e3dddb;">*?!?</text></svg>