<?xml version="1.0" encoding="UTF-8" standalone="no"?><!DOCTYPE svg PUBLIC "-//W3C//DTD SVG 1.1//EN" "http://www.w3.org/Graphics/SVG/1.1/DTD/svg11.dtd"><svg width="100%" height="100%" viewBox="0 0 80 80" version="1.1" xmlns="http://www.w3.org/2000/svg" xmlns:xlink="http://www.w3.org/1999/xlink" xml:space="preserve" xmlns:serif="http://www.serif.com/" style="fill-rule:evenodd;clip-rule:evenodd;stroke-linejoin:round;stroke-miterlimit:1.41421;"><rect id="message-board" serif:id="message board" x="0" y="0" width="80" height="80" style="fill:#31353d;"/><g><path d="M32.418,29.912c2.375,-0.332 4.89,-0.5 7.464,-0.5c2.711,0 5.325,0.18 7.766,0.539l0.121,0.016l1.238,-1.239l-0.457,-0.074c-2.734,-0.445 -5.652,-0.672 -8.668,-0.672c-2.898,0 -5.714,0.215 -8.367,0.625l-0.461,0.075l1.25,1.246l0.114,-0.016Z" style="fill:#fff;fill-rule:nonzero;"/><path d="M51.921,29.346l-0.132,-0.036l-1.184,1.18l0.418,0.098c5.063,1.195 8.332,3.199 8.332,5.105c0,1.176 -1.309,2.453 -3.602,3.524l0,-0.254l-1.425,0l0,0.847c-1.942,0.719 -4.344,1.293 -6.977,1.661l0,-0.239l-1.426,0l0,0.426c-1.937,0.207 -3.968,0.317 -6.043,0.317c-0.687,0 -1.41,-0.016 -2.203,-0.047l0,-0.696l-1.426,0l0,0.621c-3.066,-0.191 -5.863,-0.617 -8.324,-1.269l0,-0.824l-1.429,0l0,0.418c-3.766,-1.207 -6.086,-2.911 -6.086,-4.485c0,-1.945 3.375,-3.972 8.605,-5.164l0.422,-0.097l-1.188,-1.184l-0.128,0.031c-5.043,1.235 -8.297,3.227 -8.989,5.485l-0.148,0l0,20.695c0,2.363 2.734,4.539 7.515,5.976l0,0.739l1.426,0l0,-0.352c2.489,0.625 5.285,1.039 8.324,1.223l0,0.793l1.43,0l0,-0.719c0.797,0.031 1.52,0.047 2.203,0.047c2.067,0 4.098,-0.106 6.039,-0.316l0,0.347l1.43,0l0,-0.527c2.848,-0.383 5.352,-0.973 7.445,-1.746l0.957,0l0,-0.387c2.598,-1.105 4.254,-2.469 4.809,-3.953l0.215,0l0,-20.695l-0.008,-0.086c0.008,-0.039 0.008,-0.075 0.008,-0.11c0,-2.605 -3.231,-4.918 -8.86,-6.347Zm-15.668,13.933l0,18.34c-3.066,-0.191 -5.863,-0.617 -8.324,-1.266l0,-18.293c2.485,0.622 5.285,1.036 8.324,1.219Zm18.075,-1.945l0,18.238c-1.942,0.723 -4.344,1.297 -6.977,1.664l0,-18.328c2.652,-0.359 4.992,-0.891 6.977,-1.574Z" style="fill:#fff;fill-rule:nonzero;"/><path d="M43.605,33.475c-0.316,0.316 -0.488,0.734 -0.488,1.179c0,0.446 0.172,0.86 0.488,1.176c0.313,0.316 0.734,0.488 1.18,0.488c0.441,0 0.859,-0.172 1.172,-0.488c0.457,-0.453 0.601,-1.129 0.39,-1.73l15.25,-15.254l-1.008,-1.008l-15.25,15.254c-0.605,-0.215 -1.289,-0.059 -1.734,0.383Z" style="fill:#fff;fill-rule:nonzero;"/><path d="M34.289,35.892c0.312,0.313 0.73,0.485 1.175,0.485c0.446,0 0.864,-0.172 1.176,-0.485c0.317,-0.316 0.488,-0.734 0.488,-1.179c0,-0.446 -0.171,-0.86 -0.488,-1.176c-0.445,-0.445 -1.133,-0.598 -1.731,-0.387l-15.253,-15.254l-1.008,1.012l15.25,15.25c-0.211,0.602 -0.066,1.277 0.391,1.734Z" style="fill:#fff;fill-rule:nonzero;"/></g></svg>