<?xml version="1.0" encoding="UTF-8" standalone="no"?><!DOCTYPE svg PUBLIC "-//W3C//DTD SVG 1.1//EN" "http://www.w3.org/Graphics/SVG/1.1/DTD/svg11.dtd"><svg width="100%" height="100%" viewBox="0 0 80 80" version="1.1" xmlns="http://www.w3.org/2000/svg" xmlns:xlink="http://www.w3.org/1999/xlink" xml:space="preserve" xmlns:serif="http://www.serif.com/" style="fill-rule:evenodd;clip-rule:evenodd;stroke-linejoin:round;stroke-miterlimit:1.41421;"><rect id="face-reader" serif:id="face reader" x="0" y="0" width="80" height="80" style="fill:#31353d;"/><g><g><clipPath id="_clip1"><path d="M8.118,61.63l35.366,0l0,-39.344l-35.366,0l0,39.344Z" clip-rule="nonzero"/></clipPath><g clip-path="url(#_clip1)"><path d="M38.412,26.611c-0.238,-0.136 0.387,0.326 0,0Zm0.297,0.298c0.075,-0.001 0.089,0.06 0.149,0.074c0.691,0.617 1.375,1.256 1.938,2.161c0.536,0.862 0.795,1.898 1.118,2.98c0.629,2.116 1.658,4.43 1.564,6.706c-0.037,0.908 -0.402,1.817 -0.596,2.683c-0.113,-0.285 -0.087,-0.708 -0.298,-0.895c0.284,4.836 -3.461,6.27 -4.023,10.506c-0.174,0.168 -0.293,-0.745 -0.448,-0.596c-0.019,0.814 0.237,1.353 0.373,2.012c-0.388,-0.109 -0.738,-0.9 -1.043,-1.341c-0.626,2.9 -1.041,6.621 0.596,8.717c0.365,0.468 0.878,0.83 1.341,1.118c0.295,0.183 0.716,0.259 0.969,0.596l-19.745,0c-0.255,-1.618 -0.415,-3.613 -1.49,-4.322c-1.687,-1.11 -4.79,-0.014 -6.632,-1.266c-0.519,-0.353 -1.05,-1.251 -1.043,-2.087c0.005,-0.603 0.494,-1.212 0.298,-2.086c-0.132,-0.59 -0.953,-0.738 -0.969,-1.49c-0.01,-0.492 0.28,-0.528 0.522,-0.894c-1.341,-0.237 -0.732,-2.013 -0.447,-2.98c-0.714,-0.427 -2.437,-0.36 -2.682,-1.342c-0.302,-1.203 1.049,-2.299 1.639,-3.055c0.348,-0.446 0.613,-0.935 0.968,-1.341c0.428,-0.488 0.854,-0.85 1.044,-1.341c0.396,-1.023 -0.276,-1.819 -0.373,-2.682c-0.252,-2.246 0.856,-3.683 1.267,-5.663c-0.473,0.273 -0.649,0.841 -1.043,1.192l0,-0.67c-0.312,0.087 -0.386,0.803 -0.671,0.67c1.616,-4.464 5.145,-7.568 9.984,-8.941c1.619,-0.459 3.641,-0.845 5.365,-0.968c3.525,-0.253 6.341,0.084 8.643,1.415c0.645,0.373 1.407,0.689 2.161,1.267c0.522,0.4 1.92,1.684 1.49,1.788c0.046,0.004 0.088,0.012 0.074,0.075Z" style="fill:#fff;"/></g></g></g><g><g><clipPath id="_clip2"><path d="M31.899,61.63l40.551,0l0,-41.113l-40.551,0l0,41.113Z" clip-rule="nonzero"/></clipPath><g clip-path="url(#_clip2)"><path d="M72.45,45.079c-0.009,-1.014 -1.399,-1.613 -2.057,-2.351c-0.302,-0.338 -0.536,-0.875 -0.808,-1.322c-0.495,-0.816 -1.033,-1.404 -0.808,-2.708c0.63,-0.114 1.121,-0.537 1.396,-0.965c-0.366,0.315 -0.736,0.628 -1.235,0.572c0.625,-2.289 -0.409,-4.784 -0.969,-6.596c0.407,-0.038 0.726,0.645 0.955,1.029c0.149,-0.25 -0.158,-0.672 -0.22,-0.955c0.22,0.026 0.347,0.317 0.514,0.514c0.109,0.129 0.302,0.577 0.367,0.294c-0.388,-0.763 -0.651,-1.65 -1.175,-2.277c0.623,0.234 1.213,1.138 1.542,1.91c0.163,-1.143 -0.965,-1.63 -1.395,-2.424c0.682,0.37 1.157,0.948 1.616,1.542c-0.114,-0.865 -0.987,-1.608 -1.763,-2.056c0.448,0.067 1.066,0.598 1.396,1.028c-0.127,-0.609 -0.727,-1.081 -1.249,-1.543c-1.028,-0.907 -2.236,-1.598 -3.526,-2.35c-1.845,-1.076 -3.658,-2.083 -6.17,-2.645c-2.428,-0.543 -4.894,-1.017 -8.007,-0.808c-2.754,0.185 -4.732,1.22 -6.538,2.498c-1.515,-2.736 -3.058,-5.239 -7.493,-4.922c-1.938,0.139 -3.601,0.981 -4.925,2.078c1.122,0.24 2.148,0.614 3.086,1.157c0.645,0.373 1.407,0.689 2.161,1.267c0.522,0.4 1.92,1.684 1.49,1.788c0.046,0.004 0.088,0.012 0.074,0.075c0.075,-0.001 0.089,0.06 0.149,0.074c0.691,0.617 1.375,1.256 1.938,2.161c0.536,0.862 0.795,1.898 1.118,2.98c0.629,2.116 1.658,4.43 1.564,6.706c-0.037,0.908 -0.402,1.817 -0.596,2.683c-0.113,-0.285 -0.087,-0.708 -0.298,-0.895c0.17,2.886 -1.095,4.56 -2.263,6.342c0.914,1.675 2.056,3.134 3.407,4.509c0.424,0.431 0.999,0.903 1.69,1.323c0.616,0.374 1.457,0.827 1.616,1.322c0.134,0.416 0.115,1.128 0.147,1.689c0.166,2.919 -0.429,5.048 -2.571,5.657c4.889,0.337 10.402,0.053 15.573,0.146c0.282,-1.487 0.333,-2.863 1.028,-3.819c0.77,-1.06 2.522,-0.892 3.967,-0.956c1.824,-0.079 3.87,-0.514 3.967,-2.35c0.042,-0.808 -0.617,-1.245 -0.441,-1.983c0.183,-0.769 1.482,-0.538 1.542,-1.543c0.044,-0.736 -0.524,-0.783 -0.881,-1.249c1.641,-0.097 1.158,-2.083 0.441,-2.864c0.865,-0.691 2.657,-0.336 2.644,-1.763Z" style="fill:#e3dddb;"/></g></g></g><g><g><clipPath id="_clip3"><rect x="38.356" y="26.585" width="0.186" height="0.145" clip-rule="nonzero"/></clipPath><g clip-path="url(#_clip3)"><path d="M38.412,26.611c-0.238,-0.136 0.387,0.326 0,0Z" style="fill:#e3dddb;"/></g></g></g></svg>