<?xml version="1.0" encoding="UTF-8" standalone="no"?><!DOCTYPE svg PUBLIC "-//W3C//DTD SVG 1.1//EN" "http://www.w3.org/Graphics/SVG/1.1/DTD/svg11.dtd"><svg width="100%" height="100%" viewBox="0 0 80 80" version="1.1" xmlns="http://www.w3.org/2000/svg" xmlns:xlink="http://www.w3.org/1999/xlink" xml:space="preserve" xmlns:serif="http://www.serif.com/" style="fill-rule:evenodd;clip-rule:evenodd;stroke-linecap:round;stroke-linejoin:round;stroke-miterlimit:1.5;"><rect id="hangman" x="0" y="0" width="80" height="80" style="fill:#31353d;"/><g id="Layer1"><path d="M24.742,49.466l16.437,0l-8.441,0l0,-30.504l14.364,0l0,3.85" style="fill:none;stroke:#fff;stroke-width:1.54px;"/><circle cx="46.957" cy="26.195" r="3.11" style="fill:none;stroke:#fff;stroke-width:1.54px;"/><path d="M46.957,29.304l0,11.425" style="fill:none;stroke:#fff;stroke-width:1.54px;"/><g id="Layer2"><path d="M42.21,29.587l4.812,4.812l4.665,-4.664" style="fill:none;stroke:#fff;stroke-width:1.54px;"/></g><g id="Layer21" serif:id="Layer2"><path d="M42.21,45.322l4.812,-4.813l4.665,4.664" style="fill:none;stroke:#fff;stroke-width:1.54px;"/><path d="M12.6,63.387l6.071,0" style="fill:none;stroke:#fff;stroke-width:0.96px;"/><path d="M20.447,63.387l6.071,0" style="fill:none;stroke:#fff;stroke-width:1px;"/><path d="M28.446,63.387l6.071,0" style="fill:none;stroke:#fff;stroke-width:1px;"/><path d="M36.293,63.387l6.072,0" style="fill:none;stroke:#fff;stroke-width:1px;"/><path d="M44.443,63.387l6.071,0" style="fill:none;stroke:#fff;stroke-width:1px;"/><path d="M52.441,63.387l6.071,0" style="fill:none;stroke:#fff;stroke-width:1px;"/><path d="M60.44,63.387l6.071,0" style="fill:none;stroke:#fff;stroke-width:1px;"/><text x="12.855px" y="61.544px" style="font-family:'ArialMT', 'Arial', sans-serif;font-size:7.303px;fill:#fff;">H</text><text x="28.888px" y="61.647px" style="font-family:'ArialMT', 'Arial', sans-serif;font-size:7.303px;fill:#fff;">N</text><text x="60.882px" y="61.647px" style="font-family:'ArialMT', 'Arial', sans-serif;font-size:7.303px;fill:#fff;">N</text><text x="36.412px" y="61.698px" style="font-family:'ArialMT', 'Arial', sans-serif;font-size:7.303px;fill:#fff;">G</text></g></g></svg>