<?xml version="1.0" encoding="UTF-8" standalone="no"?><!DOCTYPE svg PUBLIC "-//W3C//DTD SVG 1.1//EN" "http://www.w3.org/Graphics/SVG/1.1/DTD/svg11.dtd"><svg width="100%" height="100%" viewBox="0 0 80 80" version="1.1" xmlns="http://www.w3.org/2000/svg" xmlns:xlink="http://www.w3.org/1999/xlink" xml:space="preserve" xmlns:serif="http://www.serif.com/" style="fill-rule:evenodd;clip-rule:evenodd;stroke-miterlimit:10;"><rect id="usa-map" serif:id="usa map" x="0" y="0" width="80" height="80" style="fill:#31353d;"/><g id="Layer-2" serif:id="Layer 2"><path d="M31.693,53.011c0.174,-0.046 0.378,-0.217 0.511,-0.082c0.258,0.262 0.178,0.672 0.322,0.879c0.148,0.213 0.555,0.338 0.655,0.651c0.121,0.378 0.311,0.92 0.351,0.973c0.121,0.16 0.267,0.21 0.395,0.388c0.363,0.5 0.5,1.135 0.733,1.721c0.256,0.642 0.75,1.19 1.569,1.271c0.319,0.031 0.707,0.113 0.802,-0.072c0.023,-0.045 -0.092,-0.144 -0.09,-0.22c0.001,-0.057 -0.034,-0.233 -0.047,-0.346c-0.016,-0.148 0.042,-0.367 0.029,-0.522c-0.013,-0.159 -0.246,-0.325 -0.237,-0.462c0.012,-0.174 0.163,-0.35 0.219,-0.502c0.1,-0.271 0.277,-0.518 0.552,-0.781c0.516,-0.495 1.091,-0.921 1.715,-1.205c0.318,-0.144 0.836,-0.195 0.941,-0.588c0.055,-0.207 -0.142,-0.304 -0.093,-0.469c0.037,-0.128 0.191,-0.281 0.384,-0.343c0.322,-0.104 0.285,0.167 0.554,0.171c0.272,0.005 0.288,-0.389 0.599,-0.424c0.59,-0.068 1.151,0.368 1.788,0.216c0.189,-0.046 0.637,-0.213 0.829,-0.173c0.247,0.051 0.243,0.4 0.408,0.523c0.373,0.278 0.981,0.128 1.451,0.104c-0.039,-0.093 -0.161,-0.236 -0.108,-0.342c0.08,-0.159 0.417,-0.055 0.417,-0.221c0,-0.294 -0.518,-0.368 -0.575,-0.45c-0.181,-0.26 0.199,-0.474 0.711,-0.492c0.372,-0.012 0.73,-0.085 1.049,-0.216c0.426,-0.175 0.793,-0.424 1.124,-0.469c0.242,-0.033 0.27,0.35 0.6,0.35c0.014,0 0.512,-0.14 0.654,-0.153c0.722,-0.067 1.067,-0.011 1.767,0.101c0.15,0.024 0.458,0.796 0.615,0.838c0.191,0.05 0.339,-0.256 0.452,-0.391c0.294,-0.352 0.712,-0.649 1.166,-0.311c0.361,0.268 0.458,0.514 0.903,0.691c0.175,0.069 0.465,0.06 0.636,0.167c0.235,0.147 -0.009,0.218 -0.043,0.47c0.636,0.178 0.354,0.795 0.431,1.21c0.038,0.203 0.14,0.511 0.399,0.6c0.052,0.24 -0.186,0.594 0.021,0.804c0.152,0.154 0.353,0.028 0.507,0.175c0.15,0.144 0.218,0.421 0.359,0.567c0.201,0.208 0.119,0.473 0.244,0.618c0.168,0.195 0.311,0.041 0.507,-0.03c0.015,0.348 0.452,0.965 0.776,0.995c0.613,0.056 0.619,-0.955 0.582,-1.296c-0.052,-0.481 -0.135,-0.974 -0.363,-1.391c-0.22,-0.402 -0.278,-0.431 -0.543,-0.811c-0.27,-0.388 -0.343,-1.027 -0.592,-1.408c-0.27,-0.413 -0.433,-0.528 -0.636,-0.972c-0.182,-0.397 -0.808,-2.47 -0.614,-2.928c0.163,-0.385 0.236,-0.51 0.151,-0.916c-0.076,-0.358 0.292,-0.877 0.528,-0.881c0.173,-0.003 0.301,-0.152 0.409,-0.225c0.294,-0.198 0.582,-0.391 0.859,-0.709c0.138,-0.159 0.129,-0.391 0.215,-0.573c0.035,-0.073 0.129,-0.162 0.145,-0.238c0.027,-0.132 -0.085,-0.188 -0.051,-0.32c0.05,-0.2 0.279,-0.24 0.439,-0.351c0.176,-0.122 0.321,-0.281 0.459,-0.448c0.263,-0.317 0.393,-0.671 0.74,-0.9c0.142,-0.094 0.457,-0.221 0.541,-0.387c0.12,-0.241 -0.067,-0.345 -0.173,-0.529c-0.289,-0.501 0.64,-0.442 0.838,-0.618c0.055,-0.049 -0.138,-0.209 -0.215,-0.291c-0.075,-0.08 -0.42,0.247 -0.668,0.089c-0.076,-0.048 -0.067,-0.268 -0.058,-0.424c0.381,-0.119 0.664,-0.36 0.705,-0.767c0.032,-0.315 -0.287,-0.485 -0.511,-0.634c-0.099,-0.066 -0.363,-0.208 -0.437,-0.31c0.173,-0.097 0.244,-0.068 0.236,-0.293c-0.006,-0.178 -0.064,-0.556 -0.23,-0.797c-0.134,-0.196 -0.357,-0.256 -0.524,-0.418c-0.09,-0.086 -0.158,-0.134 -0.216,-0.275c0.211,0.054 0.519,0.219 0.719,0.208c-0.122,-0.208 -0.21,-0.56 -0.185,-0.842c0.023,-0.263 0.113,-0.618 0.235,-0.871c0.203,0.407 0.146,0.697 0.23,1.125c0.062,0.313 0.528,1.093 0.919,1.006c0.343,-0.077 0.399,-0.863 0.233,-1.119c-0.114,-0.177 -0.296,-0.308 -0.434,-0.461c-0.197,-0.219 -0.272,-0.492 -0.229,-0.7c0.344,0.328 0.862,-0.022 0.955,-0.32c0.082,-0.263 0.037,-0.464 0.05,-0.738c0.011,-0.225 -0.14,-0.895 -0.136,-1.043c0,0 1.397,-0.403 1.67,-0.853c-0.307,-0.027 -0.706,0.079 -0.986,0.028c0.247,-0.304 0.53,-0.394 0.863,-0.556c0.234,-0.114 0.808,-0.292 1.211,-0.433c0.171,-0.059 0.327,-0.07 0.388,-0.134c0.213,-0.22 0.255,-0.613 0.13,-0.827c-0.1,-0.17 -0.453,-0.48 -0.765,-0.726c0.134,-0.466 0.452,-0.838 0.517,-2.041c0.014,-0.25 0.517,-0.521 0.654,-0.732c0.1,-0.151 0.327,-0.289 0.316,-0.803c0.356,0.067 2.123,-1.185 1.056,-1.24c0.118,-0.637 -0.453,-0.19 -0.647,-0.794c-0.104,-0.325 -0.204,-0.628 -0.312,-0.949c-0.282,-0.838 -1.053,-1.257 -1.433,-0.179c-0.299,0.843 -0.081,1.838 -0.861,2.965c-0.158,0.228 -0.523,0.617 -0.799,0.819c-0.094,0.069 -0.359,0.124 -0.521,0.142c-0.654,0.071 -1.697,-0.112 -2.475,0.455c-0.526,0.384 -0.695,0.986 -0.786,1.552c-0.103,0.637 -0.09,1.218 -0.564,1.352c-0.242,0.068 -0.719,0.12 -0.791,0.041c-0.125,-0.137 -0.298,-0.108 -0.509,-0.08c-0.058,0.008 -0.615,0.162 -0.665,0.294c-0.135,0.356 0.276,0.416 0.125,0.684c-0.086,0.154 -0.384,0.379 -0.496,0.514c-0.327,0.4 -0.705,0.92 -1.113,1.261c-0.723,0.605 -1.821,1.116 -2.766,0.65c-0.62,-0.306 -0.467,-0.72 -0.183,-1.202c0.237,-0.402 0.82,-0.207 0.497,-1.335c-0.198,-0.69 -0.422,-0.938 -0.713,-0.838c-0.183,0.064 -0.447,0.945 -0.744,0.556c-0.121,-0.157 -0.139,-0.69 0.018,-0.864c0.287,-0.318 0.205,-1.352 -0.157,-1.602c-0.13,-0.09 -0.313,0.022 -0.431,-0.079c-0.168,-0.142 -0.667,-0.554 -0.873,-0.279c-0.135,0.181 -0.038,0.982 -0.171,1.157c-0.28,0.365 -0.472,-0.097 -0.766,0.129c-0.051,0.039 -0.024,0.1 -0.055,0.289c-0.025,0.156 0.134,0.273 0.08,0.519c-0.058,0.263 -0.203,0.606 -0.166,0.711c0.23,0.64 0.643,1.068 0.366,1.955c-0.142,0.456 -0.404,1.29 -0.74,1.29c-0.833,0 -1.285,-0.575 -1.285,-1.815c0,-0.379 -0.034,-1.273 0.075,-1.643c0.042,-0.141 0.149,-0.179 0.215,-0.268c0.156,-0.207 0.261,-0.374 0.025,-0.517c-0.171,-0.103 -0.312,0.03 -0.378,-0.116c-0.075,-0.169 -0.105,-0.42 -0.024,-0.63c0.065,-0.166 0.264,-0.386 0.326,-0.558c0.153,-0.424 0.177,-0.713 0.319,-0.839c0.465,-0.413 3.092,-0.386 2.672,-0.911c-0.099,-0.124 -0.629,-0.128 -0.775,-0.082c0.061,-0.221 0.075,-0.258 -0.192,-0.258c-0.344,0 -0.769,0.533 -1.493,0.553c-0.298,0.009 -0.624,-0.292 -1.051,-0.402c-0.322,-0.083 -0.598,0.235 -0.646,-0.257c-0.647,0.106 -1.464,0.849 -2.08,0.821c-0.326,-0.015 -0.208,-0.231 -0.517,-0.285c-0.346,-0.06 -0.782,0.26 -1.099,0.028c-0.238,-0.173 1.457,-1.513 1.988,-1.793c-0.218,-0.204 -0.479,-0.314 -0.738,-0.274c-0.191,0.03 -0.364,0.217 -0.566,0.137c-0.604,-0.239 -0.806,-0.566 -1.013,-0.645c-0.234,-0.091 -0.498,0.125 -0.954,0.055c-0.77,-0.117 -1.271,-0.229 -1.218,-0.81c-0.324,0.489 -0.597,0.391 -1.11,0.391c-0.899,0 -4.134,-0.137 -5.474,-0.268c-1.127,-0.109 -4.839,-0.376 -6.214,-0.609c-1.061,-0.181 -1.993,-0.336 -2.978,-0.482c0,0 -1.718,-0.29 -2.371,-0.417c-0.76,-0.148 -3.219,-0.641 -4.11,-0.924c-0.726,-0.231 -1.49,-0.403 -2.069,-0.551c-0.298,-0.077 -1.21,-0.446 -1.598,-0.371c-0.264,0.051 -0.024,0.618 -0.025,0.877c-0.002,0.34 -0.136,0.249 -0.288,0.477c-0.07,0.106 -0.073,0.428 -0.215,0.611c-0.19,0.245 -0.82,0.205 -0.718,0.104c0.316,-0.313 1.261,-0.789 0.466,-1.19c-0.142,-0.072 -0.395,-0.012 -0.553,-0.061c-0.122,-0.039 -0.845,-0.804 -1.078,-0.611c-0.143,0.119 0.264,0.362 0.238,0.803c-0.022,0.366 -0.519,1.329 -0.164,1.316c0.487,-0.018 0.139,0.411 0.228,0.652c0.087,0.234 0.518,0.104 0.331,0.313c-0.148,0.165 -0.581,0.029 -0.719,0.194c-0.047,0.057 -0.015,0.291 -0.072,0.461c0,0 -0.129,0.045 -0.18,0.327c-0.046,0.254 -0.118,0.69 -0.24,0.926c-0.113,0.22 -0.207,0.155 -0.304,0.39c-0.14,0.339 -0.124,0.965 -0.368,1.276c-0.286,0.365 -0.548,0.574 -0.646,1.064c-0.136,0.675 -0.158,0.964 -0.158,1.739c0,0.323 -0.024,0.688 -0.216,0.953c-0.173,0.241 -0.526,0.522 -0.531,0.79c-0.005,0.237 0.126,0.433 0.187,0.685c0.073,0.309 0.098,0.656 0.043,0.969c0,0 -0.098,0.521 -0.108,0.715c-0.016,0.3 0.061,0.347 0.275,0.497c0.424,0.296 0.246,0.565 0.116,0.974c0.18,0.039 0.346,-0.111 0.531,-0.103c0.146,0.007 0.368,0.071 0.499,0.152c0.158,0.097 0.295,0.339 0.024,0.312c-0.21,-0.02 -0.285,-0.268 -0.537,-0.175c-0.024,0.125 0.039,0.233 0.045,0.355c0.013,0.255 -0.15,0.282 -0.216,0.474c-0.049,0.144 0.041,0.218 0.109,0.369c0.132,0.296 0.272,0.657 0.172,0.989c-0.117,0.39 -0.187,0.617 0.043,0.983c0.19,0.301 0.373,0.574 0.55,0.896c0.16,0.29 0.182,0.676 0.118,1.009c-0.073,0.377 -0.183,0.542 0.237,0.705c0.223,0.086 0.749,0.13 0.906,0.312c0.086,0.099 0.081,0.242 0.194,0.358c0.097,0.101 0.236,0.262 0.447,0.262c0.161,0 0.428,0.325 0.377,0.649c0.841,0 1.091,1.624 1.045,2.056c2.005,0.112 2.077,0.397 2.899,0.838c0.818,0.438 1.057,0.591 1.862,1.035c0.886,0.49 1.597,0.819 2.524,1.177c0.722,0.279 2.089,0.758 2.867,0.604c-0.014,-0.313 -0.329,-0.453 -0.054,-0.615c0.248,-0.145 0.409,0.201 0.985,0.127c0.305,-0.04 0.952,-0.142 1.216,0.013c0.28,0.165 0.466,0.6 0.644,0.844c0.243,0.332 0.787,0.497 1.024,0.793c0.463,0.581 0.246,0.76 0.485,1.308c0.397,0.912 1.314,1.497 1.67,1.553c0.345,-0.526 0.697,-0.917 0.974,-1.159c0.024,-0.021 0.098,-0.012 0.125,0.004c0.047,0.027 0.094,0.144 0.144,0.164c0.093,0.036 0.298,-0.034 0.395,-0.06Z" style="fill:none;stroke:#fff;stroke-width:0.46px;"/><path d="M56.683,48.116c0.105,-0.258 0.318,-0.486 0.475,-0.489c0.173,-0.003 0.301,-0.152 0.409,-0.225c0.294,-0.198 0.582,-0.391 0.859,-0.709c0.138,-0.159 0.129,-0.391 0.215,-0.573c0.035,-0.073 0.129,-0.162 0.145,-0.238c0.027,-0.132 -0.085,-0.188 -0.051,-0.32c0.048,-0.189 0.255,-0.236 0.412,-0.333c-0.092,-0.099 -0.206,-0.19 -0.336,-0.291c-0.286,-0.222 -0.549,-0.491 -0.91,-0.536c-0.392,-0.049 -0.574,-0.045 -0.957,0.035c-0.313,0.065 -0.74,0.013 -0.695,-0.432c-0.259,0 -2.575,0.093 -2.551,0.916c0.005,0.166 0.174,0.286 0.317,0.372c0.181,0.11 0.307,0.047 0.433,0.175c0.219,0.223 0.445,0.393 0.572,0.578c0.348,0.506 0.907,1.027 1.279,1.505c0.122,0.156 0.246,0.364 0.384,0.565Z" style="fill:none;stroke:#fff;stroke-width:0.46px;"/><path d="M56.479,49.424c0.163,-0.385 0.236,-0.51 0.151,-0.916c-0.026,-0.121 -0.001,-0.26 0.053,-0.392c0,0 0,0 0,0c-0.138,-0.201 -0.262,-0.409 -0.384,-0.565c-0.372,-0.478 -0.931,-0.999 -1.279,-1.505c-0.127,-0.185 -0.353,-0.355 -0.572,-0.578c-0.126,-0.128 -0.253,-0.065 -0.434,-0.175c-0.142,-0.086 -0.311,-0.206 -0.316,-0.372c-0.003,-0.099 0.029,-0.188 0.087,-0.267c-0.067,0.013 -0.133,0.027 -0.194,0.037c-0.444,0.074 -0.658,0.055 -1.107,0.096c-0.315,0.029 -1.034,0.134 -1.465,0.164c0.115,0.656 0.478,1.865 0.64,2.405c0.137,0.455 0.454,1.36 0.538,1.603c-0.082,0.258 -0.46,0.402 -0.041,0.961c0.156,0.208 0.164,0.601 0.112,0.867c0.114,0.243 0.179,0.146 0.317,0.288c0.373,0.029 1.877,0.103 2.356,0.029c0.218,-0.034 0.525,-0.081 0.748,-0.03c0.232,0.052 0.363,0.236 0.402,-0.119c0.02,-0.184 -0.198,-0.489 0.114,-0.544c0.214,-0.036 0.244,0.241 0.377,0.233c-0.119,-0.53 -0.186,-1.023 -0.103,-1.22Z" style="fill:none;stroke:#fff;stroke-width:0.46px;"/><path d="M59.239,56.91c-0.054,-0.48 -0.139,-0.973 -0.369,-1.389c-0.221,-0.401 -0.279,-0.43 -0.546,-0.808c-0.272,-0.387 -0.348,-1.025 -0.599,-1.406c-0.272,-0.412 -0.435,-0.526 -0.64,-0.969c-0.104,-0.225 -0.355,-0.991 -0.516,-1.695c-0.122,-0.011 -0.157,-0.267 -0.364,-0.232c-0.312,0.055 -0.094,0.36 -0.114,0.544c-0.039,0.355 -0.17,0.171 -0.402,0.119c-0.223,-0.051 -0.53,-0.004 -0.748,0.03c-0.479,0.074 -1.983,0 -2.356,-0.029c-0.137,-0.141 -0.202,-0.047 -0.314,-0.283c-0.431,0.087 -2.903,0.313 -3.173,0.327c0.109,0.24 0.24,0.485 0.377,0.722c0.154,-0.04 0.341,-0.087 0.42,-0.095c0.721,-0.07 1.066,-0.016 1.767,0.092c0.15,0.023 0.461,0.795 0.618,0.836c0.191,0.05 0.339,-0.258 0.451,-0.393c0.292,-0.354 0.708,-0.652 1.164,-0.317c0.363,0.267 0.461,0.512 0.907,0.687c0.175,0.068 0.464,0.058 0.636,0.164c0.235,0.146 -0.008,0.218 -0.041,0.47c0.637,0.176 0.357,0.794 0.437,1.209c0.039,0.202 0.142,0.509 0.401,0.597c0.053,0.24 -0.183,0.595 0.025,0.805c0.152,0.153 0.352,0.026 0.507,0.172c0.152,0.143 0.221,0.42 0.362,0.565c0.202,0.207 0.121,0.473 0.247,0.617c0.169,0.194 0.311,0.039 0.506,-0.032c0.017,0.347 0.457,0.962 0.781,0.991c0.613,0.053 0.614,-0.958 0.576,-1.299Z" style="fill:none;stroke:#fff;stroke-width:0.46px;"/><path d="M52.272,50.794c-0.002,-0.002 -0.003,-0.005 -0.004,-0.007c0.052,-0.266 0.044,-0.659 -0.112,-0.867c-0.419,-0.559 -0.041,-0.703 0.041,-0.961c-0.084,-0.243 -0.401,-1.148 -0.538,-1.603c-0.162,-0.54 -0.525,-1.749 -0.64,-2.405l-2.903,0.26l0,6.508c0.19,-0.092 0.367,-0.167 0.535,-0.19c0.242,-0.033 0.27,0.35 0.6,0.35c0.006,0 0.098,-0.025 0.214,-0.055c-0.133,-0.232 -0.261,-0.471 -0.367,-0.705c0.27,-0.014 2.742,-0.24 3.173,-0.327c0,0.001 0,0.001 0.001,0.002Z" style="fill:none;stroke:#fff;stroke-width:0.46px;"/><path d="M52.537,51.031c-0.001,0 -0.002,-0.001 -0.003,-0.001c0.001,0 0.002,0.001 0.003,0.001Z" style="fill:none;stroke:#fff;stroke-width:0.46px;"/><path d="M48.116,51.719l0,-6.508c-0.899,0.096 -1.475,0.183 -2.489,0.291c-0.162,0.324 -1.081,2.261 -1.056,2.481c0.021,0.183 0.082,0.278 0.172,0.432c0.217,0.368 0.319,0.739 0.194,1.154c-0.088,0.294 -0.262,0.551 -0.377,0.833c-0.147,0.361 -0.228,0.607 -0.234,0.997c0.503,0 2.088,-0.042 2.292,-0.042c-0.114,0.346 -0.054,0.625 0.105,0.84c0.284,-0.031 0.556,-0.097 0.804,-0.199c0.21,-0.086 0.406,-0.191 0.589,-0.279c0,0 0,0 0,0Z" style="fill:none;stroke:#fff;stroke-width:0.46px;"/><path d="M47.379,52.053c0.013,-0.004 0.026,-0.008 0.039,-0.013c-0.013,0.005 -0.026,0.009 -0.039,0.013Z" style="fill:none;stroke:#fff;stroke-width:0.5px;"/><path d="M47.258,52.091c0.017,-0.004 0.033,-0.009 0.049,-0.014c-0.016,0.005 -0.032,0.01 -0.049,0.014Z" style="fill:none;stroke:#fff;stroke-width:0.5px;"/><path d="M47.093,52.135c-0.044,0.01 -0.089,0.019 -0.134,0.027c0.045,-0.008 0.09,-0.017 0.134,-0.027Z" style="fill:none;stroke:#fff;stroke-width:0.46px;"/><path d="M46.342,53.156c0,-0.294 -0.518,-0.368 -0.575,-0.45c-0.181,-0.26 0.199,-0.474 0.711,-0.492c0.083,-0.003 0.164,-0.009 0.245,-0.017c-0.159,-0.215 -0.219,-0.494 -0.105,-0.84c-0.204,0 -1.789,0.042 -2.292,0.042c0.006,-0.39 0.087,-0.636 0.234,-0.997c0.115,-0.282 0.289,-0.539 0.377,-0.833c0.124,-0.412 0.024,-0.78 -0.188,-1.144c-1.146,0.019 -2.769,0.075 -3.483,0.075c-0.018,0.368 -0.026,0.75 -0.025,1.114c0.001,0.426 0.204,0.706 0.355,1.073c0.132,0.318 0.222,0.486 0.238,0.827c0.009,0.184 0.011,0.382 -0.022,0.559c-0.03,0.162 -0.075,0.368 -0.075,0.536c0,0.134 0.065,0.295 0.156,0.449c0.471,0.068 0.937,0.33 1.452,0.207c0.189,-0.046 0.637,-0.213 0.829,-0.173c0.247,0.051 0.243,0.4 0.408,0.523c0.373,0.278 0.981,0.128 1.451,0.104c-0.039,-0.093 -0.161,-0.236 -0.108,-0.342c0.08,-0.159 0.417,-0.055 0.417,-0.221Z" style="fill:none;stroke:#fff;stroke-width:0.46px;"/><path d="M46.925,52.168c-0.028,0.005 -0.055,0.009 -0.083,0.013c0.028,-0.004 0.055,-0.008 0.083,-0.013Z" style="fill:none;stroke:#fff;stroke-width:0.46px;"/><path d="M46.812,52.185c-0.029,0.004 -0.059,0.008 -0.088,0.011c0.029,-0.003 0.059,-0.007 0.088,-0.011Z" style="fill:none;stroke:#fff;stroke-width:0.5px;"/><path d="M47.756,51.895c-0.074,0.036 -0.15,0.071 -0.229,0.103c0.079,-0.032 0.155,-0.067 0.229,-0.102c0,-0.001 0,-0.001 0,-0.001Z" style="fill:none;stroke:#fff;stroke-width:0.46px;"/><path d="M47.14,52.124c0.018,-0.005 0.036,-0.01 0.054,-0.014c-0.018,0.004 -0.036,0.009 -0.054,0.014Z" style="fill:none;stroke:#fff;stroke-width:0.5px;"/><path d="M41.893,53.058c-0.075,-0.141 -0.156,-0.315 -0.156,-0.449c0,-0.168 0.045,-0.374 0.075,-0.537c0.033,-0.175 0.031,-0.374 0.022,-0.558c-0.016,-0.341 -0.106,-0.509 -0.238,-0.827c-0.151,-0.367 -0.354,-0.647 -0.355,-1.073c-0.001,-0.364 0.007,-0.746 0.025,-1.114l-0.025,-0.703l-0.553,-0.015l-0.072,-0.194c0,0 -5.316,-0.124 -6.308,-1.401c0,-0.565 0.057,-2.831 0.057,-2.831l-3.369,-0.367l-0.654,6.834l-4.224,-0.507l0,0.202c0.043,0.012 0.081,0.027 0.114,0.046c0.28,0.165 0.466,0.6 0.644,0.844c0.243,0.332 0.787,0.497 1.024,0.793c0.463,0.581 0.246,0.76 0.485,1.308c0.397,0.912 1.314,1.497 1.67,1.553c0.345,-0.526 0.697,-0.917 0.974,-1.159c0.024,-0.021 0.098,-0.012 0.125,0.004c0.047,0.027 0.094,0.144 0.144,0.164c0.093,0.036 0.298,-0.034 0.395,-0.06c0.174,-0.046 0.378,-0.217 0.511,-0.082c0.258,0.262 0.178,0.672 0.322,0.879c0.148,0.213 0.555,0.338 0.655,0.651c0.121,0.378 0.311,0.92 0.351,0.973c0.121,0.16 0.267,0.21 0.395,0.388c0.363,0.5 0.5,1.135 0.733,1.721c0.256,0.642 0.749,1.19 1.569,1.271c0.319,0.031 0.707,0.113 0.802,-0.072c0.023,-0.045 -0.092,-0.143 -0.09,-0.22c0.001,-0.057 -0.034,-0.233 -0.047,-0.346c-0.016,-0.148 0.042,-0.367 0.029,-0.522c-0.013,-0.159 -0.246,-0.325 -0.237,-0.461c0.012,-0.175 0.163,-0.351 0.219,-0.503c0.1,-0.271 0.277,-0.518 0.552,-0.781c0.516,-0.495 1.091,-0.921 1.715,-1.205c0.318,-0.144 0.836,-0.195 0.941,-0.588c0.055,-0.207 -0.142,-0.304 -0.093,-0.469c0.037,-0.128 0.191,-0.281 0.384,-0.343c0.322,-0.104 0.285,0.167 0.554,0.171c0.272,0.005 0.288,-0.389 0.599,-0.424c0.113,-0.013 0.245,0.002 0.336,0.009Z" style="fill:none;stroke:#fff;stroke-width:0.46px;"/><path d="M26.118,49.316l4.224,0.507l0.654,-6.834l0.05,-0.526c0,0 -4.308,-0.405 -6.915,-0.802c-0.274,1.913 -0.881,6.37 -1.147,8.32c0.408,0.082 0.799,0.118 1.101,0.058c-0.014,-0.313 -0.329,-0.453 -0.054,-0.615c0.248,-0.145 0.409,0.201 0.985,0.127c0.268,-0.035 0.798,-0.118 1.102,-0.033l0,-0.202Z" style="fill:none;stroke:#fff;stroke-width:0.5px;"/><path d="M27.945,51.26c-0.014,-0.019 -0.029,-0.039 -0.045,-0.059c0.016,0.02 0.031,0.04 0.045,0.059Z" style="fill:none;stroke:#fff;stroke-width:0.5px;"/><path d="M27.947,51.262c0.014,0.019 0.027,0.037 0.039,0.055c-0.012,-0.018 -0.025,-0.036 -0.039,-0.055Z" style="fill:none;stroke:#fff;stroke-width:0.46px;"/><path d="M34.308,46.187c0.992,1.277 6.308,1.401 6.308,1.401c0.116,-0.405 0.249,-1.697 0.141,-2.577c-0.097,-0.784 -0.328,-1.237 -0.328,-1.237l0,-1.103c0,0 -1.799,0.113 -3.966,0.089c-2.108,-0.022 -4.573,-0.18 -5.417,-0.297c-0.024,0.253 -0.05,0.526 -0.05,0.526l3.369,0.367c0,0 -0.057,2.266 -0.057,2.831Z" style="fill:none;stroke:#fff;stroke-width:0.5px;"/><path d="M44.743,48.415c-0.09,-0.154 -0.151,-0.249 -0.172,-0.432c-0.025,-0.22 0.894,-2.157 1.056,-2.481c0,0 0.51,-0.975 0.594,-1.728c-0.318,0.074 -0.821,0.134 -0.821,0.134c0,0 0.101,-0.282 0.259,-0.671c-1.724,0.134 -5.23,0.149 -5.23,0.149l0,0.388c0,0 0.231,0.453 0.328,1.237c0.108,0.88 -0.025,2.172 -0.141,2.577l0.072,0.194l0.553,0.015l0.025,0.703c0.714,0 2.337,-0.057 3.483,-0.075c-0.002,-0.004 -0.004,-0.007 -0.006,-0.01Z" style="fill:none;stroke:#fff;stroke-width:0.46px;"/><path d="M18.664,40.663c-0.125,0.554 -0.151,0.883 -0.269,1.397c-0.243,-0.023 -0.427,-0.044 -0.726,-0.081c-0.136,0.618 -0.259,1.137 -0.136,1.746c0.069,0.347 0.118,0.537 0.258,0.805c-0.172,0.309 -0.587,0.661 -0.776,0.961c-0.101,0.162 -0.19,0.487 -0.15,0.692c0.033,0.173 0.089,0.23 0.021,0.425c-0.058,0.166 -0.2,0.319 -0.357,0.442c0.092,0.055 0.19,0.112 0.303,0.173c0.818,0.438 1.057,0.591 1.862,1.035c0.886,0.49 1.597,0.819 2.524,1.177c0.201,0.078 0.503,0.194 0.803,0.287c0.43,0.133 0.856,0.236 0.963,0.259c0.266,-1.95 0.873,-6.407 1.147,-8.32c-0.348,-0.072 -1.232,-0.221 -2.482,-0.439c-1.224,-0.213 -2.534,-0.459 -2.985,-0.559Z" style="fill:none;stroke:#fff;stroke-width:0.5px;"/><path d="M17.669,41.979c0.299,0.036 0.483,0.058 0.726,0.081c0.118,-0.514 0.143,-0.843 0.269,-1.397l1.304,-7.296c0,0 -4.095,-0.805 -6.013,-1.453c-0.388,1.408 -1.207,4.313 -1.207,4.313l4.784,7.493c-0.121,-0.606 0.001,-1.125 0.137,-1.741Z" style="fill:none;stroke:#fff;stroke-width:0.5px;"/><path d="M22.792,35.423c0,0 0.149,-0.827 0.28,-1.52c-1.056,-0.067 -3.104,-0.537 -3.104,-0.537l-1.304,7.298c0.451,0.099 1.761,0.345 2.985,0.558c1.25,0.218 2.134,0.367 2.482,0.44l0.837,-5.926l-2.176,-0.313Z" style="fill:none;stroke:#fff;stroke-width:0.5px;"/><path d="M32.469,36.518l-0.476,6.041c0,0 -0.71,-0.072 -0.947,-0.096c-0.827,-0.083 -2.18,-0.21 -3.475,-0.362c-1.777,-0.208 -3.44,-0.44 -3.44,-0.44c0,0 0.597,-4.227 0.837,-5.925c0.624,0.079 1.923,0.295 3.09,0.409c2.185,0.214 4.411,0.373 4.411,0.373Z" style="fill:none;stroke:#fff;stroke-width:0.46px;"/><path d="M40.304,39.361c-0.094,-0.067 -0.223,-0.08 -0.302,-0.296c-0.1,-0.27 0.046,-0.38 0.199,-0.566c-0.153,-0.04 -0.391,-0.217 -0.552,-0.418l-7.293,-0.131l-0.363,4.609c1.149,0.094 2.908,0.185 4.47,0.201c2.168,0.024 3.966,-0.089 3.966,-0.089c0,-0.611 -0.11,-3.063 -0.125,-3.31Z" style="fill:none;stroke:#fff;stroke-width:0.46px;"/><path d="M46.701,42.47c-0.026,-0.089 -0.23,-0.216 -0.374,-0.588c-0.087,-0.227 -0.182,-0.442 -0.316,-0.648c-0.086,-0.135 -0.261,-0.275 -0.394,-0.369c-0.146,-0.103 -0.262,-0.054 -0.317,-0.22c-0.058,-0.172 -0.021,-0.599 0.159,-0.827c-0.1,-0.127 -0.22,-0.272 -0.49,-0.212c-0.02,-0.201 -0.093,-0.388 -0.231,-0.589c-0.149,-0.217 -0.386,-0.19 -0.588,-0.413c-0.301,-0.335 -0.287,-0.879 -0.294,-1.265c-0.596,0 -3.118,0 -4.533,0.039c0,0 0.135,0.439 0.284,0.648c0.158,0.223 0.427,0.429 0.594,0.473c-0.153,0.186 -0.299,0.296 -0.199,0.566c0.079,0.216 0.208,0.229 0.302,0.296c0.015,0.247 0.125,2.699 0.125,3.31l0,0.715c0,0 3.506,-0.015 5.23,-0.149c-0.158,0.389 -0.259,0.671 -0.259,0.671c0,0 0.503,-0.06 0.821,-0.134c0.036,-0.284 0.097,-0.555 0.167,-0.798c0.049,-0.167 0.366,-0.325 0.313,-0.506Z" style="fill:none;stroke:#fff;stroke-width:0.46px;"/><path d="M58.613,46.191c-0.008,0.024 -0.016,0.048 -0.022,0.073c0.006,-0.025 0.014,-0.049 0.022,-0.073Z" style="fill:none;stroke:#fff;stroke-width:0.46px;"/><path d="M58.746,45.527c-0.004,0.011 -0.008,0.022 -0.011,0.035c0.003,-0.013 0.007,-0.024 0.011,-0.035Z" style="fill:none;stroke:#fff;stroke-width:0.46px;"/><path d="M58.761,45.495c-0.004,0.007 -0.007,0.015 -0.01,0.022c0.003,-0.007 0.006,-0.015 0.01,-0.022Z" style="fill:none;stroke:#fff;stroke-width:0.46px;"/><path d="M53.757,44.695c0,0 0,0.001 0,0.001c0,0 0,-0.001 0,-0.001Z" style="fill:none;stroke:#fff;stroke-width:0.46px;"/><path d="M58.779,45.467c-0.004,0.006 -0.008,0.012 -0.011,0.017c0.003,-0.005 0.007,-0.011 0.011,-0.017Z" style="fill:none;stroke:#fff;stroke-width:0.46px;"/><path d="M58.641,46.12c-0.01,0.023 -0.02,0.047 -0.028,0.071c0.008,-0.024 0.018,-0.048 0.028,-0.071Z" style="fill:none;stroke:#fff;stroke-width:0.46px;"/><path d="M58.591,46.265c-0.007,0.024 -0.013,0.049 -0.019,0.074c0.006,-0.025 0.012,-0.05 0.019,-0.074Z" style="fill:none;stroke:#fff;stroke-width:0.5px;"/><path d="M58.851,45.395c-0.006,0.004 -0.011,0.009 -0.017,0.013c0.006,-0.004 0.011,-0.009 0.017,-0.013Z" style="fill:none;stroke:#fff;stroke-width:0.46px;"/><path d="M58.787,45.456c0.005,-0.005 0.009,-0.011 0.013,-0.015c-0.004,0.004 -0.008,0.01 -0.013,0.015Z" style="fill:none;stroke:#fff;stroke-width:0.46px;"/><path d="M58.943,45.336c-0.008,0.005 -0.016,0.01 -0.025,0.014c0.009,-0.004 0.017,-0.009 0.025,-0.014Z" style="fill:none;stroke:#fff;stroke-width:0.46px;"/><path d="M58.879,45.374c-0.006,0.005 -0.012,0.009 -0.018,0.013c0.006,-0.004 0.012,-0.008 0.018,-0.013Z" style="fill:none;stroke:#fff;stroke-width:0.5px;"/><path d="M58.91,45.355c-0.007,0.004 -0.014,0.009 -0.021,0.013c0.007,-0.004 0.014,-0.009 0.021,-0.013Z" style="fill:none;stroke:#fff;stroke-width:0.5px;"/><path d="M61.58,42.329c0.054,-0.049 -0.139,-0.209 -0.216,-0.291c-0.075,-0.08 -0.42,0.247 -0.668,0.089c-0.076,-0.048 -0.067,-0.268 -0.057,-0.424c0.363,-0.114 0.638,-0.339 0.697,-0.714c-0.094,0.014 -1.65,0.377 -3.133,0.624c-1.444,0.241 -2.956,0.357 -3.039,0.358c-0.005,0.095 -0.04,0.321 -0.086,0.402c-0.156,0.274 -0.428,0.447 -0.69,0.615c-0.326,0.208 -1.366,1.066 -1.651,1.262c-0.162,0.112 -0.312,0.235 -0.311,0.503l0,0.04c0.021,-0.003 0.04,-0.004 0.058,-0.006c0.449,-0.041 0.663,-0.022 1.107,-0.096c0.061,-0.01 0.127,-0.024 0.194,-0.037c0.419,-0.577 2.236,-0.649 2.464,-0.649c-0.045,0.445 0.382,0.497 0.695,0.432c0.383,-0.08 0.565,-0.084 0.957,-0.035c0.361,0.045 0.624,0.314 0.91,0.536c0.13,0.101 0.244,0.192 0.336,0.291c-0.062,0.039 -0.133,0.07 -0.199,0.105c0.075,-0.04 0.157,-0.075 0.226,-0.123c0.176,-0.123 0.321,-0.281 0.459,-0.448c0.263,-0.317 0.393,-0.671 0.739,-0.9c0.143,-0.094 0.458,-0.221 0.542,-0.387c0.12,-0.241 -0.067,-0.345 -0.173,-0.529c-0.289,-0.501 0.64,-0.442 0.839,-0.618Z" style="fill:none;stroke:#fff;stroke-width:0.5px;"/><path d="M58.824,45.417c-0.005,0.004 -0.01,0.009 -0.014,0.014c0.004,-0.005 0.009,-0.01 0.014,-0.014Z" style="fill:none;stroke:#fff;stroke-width:0.46px;"/><path d="M47.965,42.664c-0.011,0.244 0.022,0.402 0.022,0.402l-1.677,0.211c-0.036,0.159 -0.067,0.326 -0.089,0.497c-0.084,0.753 -0.594,1.728 -0.594,1.728c1.014,-0.108 1.59,-0.195 2.489,-0.291l2.903,-0.26c0.406,-0.028 1.069,-0.123 1.407,-0.159l0,-0.039c-0.001,-0.268 0.15,-0.391 0.311,-0.502c0.285,-0.197 1.325,-1.055 1.651,-1.263c0.262,-0.168 0.534,-0.341 0.69,-0.615c0.046,-0.081 0.081,-0.307 0.086,-0.402c-1.25,0.112 -4.03,0.592 -7.199,0.693Z" style="fill:none;stroke:#fff;stroke-width:0.5px;"/><path d="M60.832,40.302c-0.099,-0.065 -0.363,-0.208 -0.437,-0.31c0.172,-0.097 0.244,-0.068 0.236,-0.293c-0.006,-0.178 -0.064,-0.556 -0.23,-0.797c-0.134,-0.197 -0.357,-0.256 -0.524,-0.418c-0.079,-0.076 -0.141,-0.122 -0.194,-0.228l0,0c-0.117,-0.168 0.009,-0.358 -0.022,-0.591c-0.005,-0.042 -0.18,-0.139 -0.386,-0.259c-0.184,-0.107 -0.391,-0.235 -0.555,-0.315c-0.016,0.138 -0.023,0.26 -0.037,0.354c-0.178,-0.028 -0.38,-0.063 -0.538,-0.167c0.005,0.02 -0.021,0.611 -0.175,0.879c-0.113,0.196 -0.297,0.403 -0.489,0.517c-0.087,0.053 -0.473,0.183 -0.535,0.183c-0.035,0.126 -0.132,0.672 -0.165,0.774c-0.069,0.211 -0.252,0.753 -0.504,0.887c-0.113,0.061 -1.041,0.581 -1.749,0.294c-0.109,0.115 -0.645,0.597 -0.822,0.779c-0.146,0.15 -0.318,0.361 -0.446,0.526c-0.022,0.028 -0.052,0.06 -0.086,0.095c0.838,-0.105 1.521,-0.199 1.99,-0.241c0.083,-0.001 1.595,-0.117 3.039,-0.358c1.483,-0.247 3.039,-0.61 3.133,-0.624c0.004,-0.022 0.005,-0.029 0.007,-0.053c0.032,-0.315 -0.287,-0.485 -0.511,-0.634Z" style="fill:none;stroke:#fff;stroke-width:0.5px;"/><path d="M67.072,26.137c0.118,-0.637 -0.453,-0.19 -0.647,-0.794c-0.104,-0.325 -0.204,-0.628 -0.312,-0.949c-0.282,-0.838 -1.053,-1.257 -1.433,-0.179c-0.277,0.783 -0.131,1.913 -0.861,2.965c0.186,0.675 0.602,2.463 1.038,2.895c0.086,-0.283 0.161,-0.646 0.189,-1.163c0.014,-0.25 0.517,-0.522 0.654,-0.732c0.1,-0.151 0.327,-0.289 0.316,-0.803c0.356,0.067 2.123,-1.185 1.056,-1.24Z" style="fill:none;stroke:#fff;stroke-width:0.5px;"/><path d="M65.294,31.679c-0.1,-0.17 -0.453,-0.48 -0.765,-0.726c0.055,-0.193 0.142,-0.37 0.23,-0.596l0,0c0,0 -1.62,0.619 -2.368,0.901c0,0.168 0.011,0.341 0.022,0.559c0.01,0.218 0.02,0.483 0.02,0.483c0.237,-0.043 1.294,-0.347 1.625,-0.446c0,0 0.312,-0.087 0.39,-0.097c0.077,0.06 0.139,0.119 0.232,0.218c0.034,0.038 0.133,0.138 0.223,0.219c0.096,0.086 0.213,0.18 0.307,0.258c0.164,-0.259 0.209,-0.559 0.084,-0.773Z" style="fill:none;stroke:#fff;stroke-width:0.46px;"/><path d="M64.861,30.071c-0.437,-0.431 -0.862,-2.216 -1.05,-2.891c-0.093,0.135 -0.257,0.326 -0.432,0.502c0.085,0.146 0.205,0.275 0.203,0.459c-0.003,0.193 -0.122,0.276 -0.225,0.323c-0.24,0.11 -0.212,0.42 -0.211,0.668c0.001,0.227 -0.029,1.54 0.001,1.847c0.754,-0.291 1.612,-0.623 1.617,-0.626c0.033,-0.086 0.066,-0.178 0.097,-0.282Z" style="fill:none;stroke:#fff;stroke-width:0.46px;"/><path d="M65.165,32.506c0.016,-0.017 0.031,-0.035 0.045,-0.054c-0.094,-0.078 -0.211,-0.172 -0.307,-0.258c-0.09,-0.081 -0.189,-0.181 -0.223,-0.219c-0.093,-0.099 -0.155,-0.158 -0.232,-0.218c-0.078,0.01 -0.39,0.097 -0.39,0.097c0.072,0.183 0.271,0.807 0.31,0.924c0.142,-0.047 0.284,-0.094 0.408,-0.138c0.171,-0.059 0.327,-0.07 0.389,-0.134Z" style="fill:none;stroke:#fff;stroke-width:0.5px;"/><path d="M64.058,31.854c-0.331,0.099 -1.388,0.403 -1.625,0.446c0,0.731 0.215,1.139 0.362,1.226c0.224,-0.224 0.478,-0.311 0.77,-0.453c0.163,-0.079 0.49,-0.19 0.809,-0.297c-0.094,-0.317 -0.197,-0.608 -0.316,-0.922Z" style="fill:none;stroke:#fff;stroke-width:0.5px;"/><path d="M63.146,29.128c0,-0.248 -0.027,-0.558 0.214,-0.667c0.102,-0.047 0.223,-0.129 0.225,-0.322c0.003,-0.184 -0.116,-0.314 -0.2,-0.46c0.003,-0.002 0.005,-0.004 0.007,-0.007c-0.125,0.125 -0.256,0.243 -0.372,0.327c-0.094,0.069 -0.359,0.124 -0.521,0.142c-0.245,0.027 -0.484,0.016 -0.805,0.024c0.357,1.176 0.697,3.093 0.697,3.093l0.748,-0.284c-0.029,-0.307 0.007,-1.619 0.007,-1.846Z" style="fill:none;stroke:#fff;stroke-width:0.5px;"/><path d="M62.391,33.88c-0.284,-0.072 -0.611,-0.16 -0.847,-0.253c-0.073,0.072 -0.213,0.283 -0.256,0.372c-0.075,0.158 -0.226,0.522 -0.113,0.619c0.063,0.054 0.153,0.097 0.225,0.171c0.118,0.121 0.081,0.166 0.086,0.322c0.008,0.215 0.205,0.223 0.131,0.341c-0.066,0.105 -0.322,0.054 -0.34,0.157c-0.018,0.108 0.157,0.143 0.101,0.26c-0.054,0.115 -0.44,0.15 -0.6,0.18c0.035,0.313 0.09,0.69 0.141,0.961c0.063,0.335 0.183,0.639 0.289,0.965c0.256,0.056 0.478,-0.012 0.65,-0.159c-0.013,-0.038 -0.028,-0.072 -0.046,-0.1c-0.114,-0.177 -0.296,-0.308 -0.434,-0.461c-0.197,-0.219 -0.272,-0.492 -0.229,-0.7c0.344,0.328 0.861,-0.022 0.955,-0.32c0.082,-0.263 0.037,-0.464 0.05,-0.738c0.011,-0.225 -0.14,-0.895 -0.136,-1.043c0,0 0.159,-0.046 0.379,-0.124c0.002,-0.149 0.003,-0.299 -0.006,-0.45Z" style="fill:none;stroke:#fff;stroke-width:0.46px;"/><path d="M61.858,37.816c-0.172,0.147 -0.394,0.215 -0.649,0.159c-0.107,-0.326 -0.227,-0.63 -0.29,-0.965c-0.04,-0.211 -0.082,-0.487 -0.116,-0.747c-0.03,-0.072 -0.045,-0.144 -0.025,-0.214c-0.253,0.055 -3.782,0.829 -3.992,0.871c0.056,0.194 0.164,0.446 0.205,0.615c0.096,-0.319 0.413,-0.426 0.711,-0.503c0.319,-0.083 0.689,-0.093 1.034,-0.09c0.003,0.051 -0.004,0.104 -0.006,0.154c0.162,0.08 0.365,0.205 0.545,0.31c0.206,0.12 0.381,0.217 0.386,0.259c0.031,0.233 -0.095,0.423 0.022,0.591l0,0l0,0.001c-0.007,-0.015 -0.014,-0.031 -0.022,-0.048c0.211,0.054 0.519,0.219 0.719,0.208c-0.122,-0.208 -0.21,-0.56 -0.185,-0.842c0.024,-0.263 0.113,-0.618 0.235,-0.871c0.203,0.407 0.146,0.697 0.23,1.125c0.062,0.313 0.528,1.093 0.92,1.006c0.323,-0.073 0.39,-0.778 0.258,-1.072c0.007,0.017 0.014,0.034 0.02,0.053Z" style="fill:none;stroke:#fff;stroke-width:0.46px;"/><path d="M61.544,33.627c0.038,0.015 0.079,0.03 0.121,0.045c0.029,-0.322 -0.675,-0.253 -0.675,-0.253c0,0 -0.262,-0.31 -0.47,-0.628c-1.509,0.461 -4.401,0.985 -4.401,0.985l-0.13,-0.388c-0.237,0.296 -0.494,0.6 -0.764,0.826c-0.04,0.033 -0.038,0.031 -0.038,0.031c0.09,0.21 0.098,0.479 0.128,0.686c0.049,0.337 0.108,0.671 0.107,1.028c0,0.02 0.001,0.041 0.001,0.062l0.122,0.028l0.273,1.042l1.024,0c-0.021,-0.059 -0.041,-0.118 -0.056,-0.171c0.21,-0.042 3.739,-0.816 3.992,-0.871c0.16,-0.03 0.546,-0.065 0.6,-0.179c0.056,-0.118 -0.119,-0.153 -0.101,-0.261c0.018,-0.103 0.274,-0.052 0.34,-0.157c0.074,-0.118 -0.123,-0.126 -0.131,-0.341c-0.005,-0.156 0.032,-0.201 -0.086,-0.322c-0.072,-0.074 -0.162,-0.117 -0.225,-0.171c-0.113,-0.097 0.038,-0.461 0.113,-0.619c0.043,-0.089 0.183,-0.3 0.256,-0.372Z" style="fill:none;stroke:#fff;stroke-width:0.46px;"/><path d="M55.38,37.091c0.107,-0.358 0.042,-0.768 0.042,-1.132c0.001,-0.357 -0.058,-0.691 -0.107,-1.028c-0.03,-0.207 -0.038,-0.476 -0.128,-0.686c-0.723,0.592 -1.799,1.077 -2.728,0.619c-0.122,-0.06 -0.214,-0.125 -0.282,-0.194c-0.111,0.021 -0.228,0.04 -0.354,0.06c-0.235,0.037 -1.013,0.084 -1.013,0.084c0.069,0.731 0.424,3.73 0.436,4.093c0.308,-0.266 0.508,0.291 0.664,0.382c0.179,0.104 0.667,0.023 0.872,-0.022c0.172,-0.038 0.357,-0.098 0.55,-0.063c0.159,0.03 0.391,0.1 0.55,0.085c0.427,-0.039 0.229,-0.379 0.287,-0.663c0.032,-0.156 0.336,-0.54 0.455,-0.646c0.143,-0.126 0.251,-0.053 0.398,-0.147c0.244,-0.158 0.277,-0.471 0.358,-0.742Z" style="fill:none;stroke:#fff;stroke-width:0.46px;"/><path d="M58.736,36.942c-0.345,-0.003 -0.715,0.007 -1.034,0.09c-0.298,0.077 -0.615,0.184 -0.711,0.503c-0.03,-0.123 -0.094,-0.288 -0.149,-0.444l0,0l-1.024,0l-0.273,-1.042l-0.122,-0.029c0.006,0.348 0.057,0.732 -0.043,1.071c-0.081,0.271 -0.114,0.584 -0.358,0.742c-0.147,0.094 -0.255,0.021 -0.398,0.147c-0.119,0.106 -0.423,0.49 -0.455,0.646c-0.057,0.279 0.132,0.612 -0.266,0.66c-0.035,1.306 0.625,1.526 0.625,1.526c0.708,0.287 1.636,-0.233 1.749,-0.294c0.252,-0.134 0.435,-0.676 0.504,-0.887c0.033,-0.102 0.13,-0.648 0.165,-0.774c0.062,0 0.448,-0.13 0.535,-0.183c0.192,-0.115 0.376,-0.321 0.489,-0.517c0.154,-0.268 0.18,-0.859 0.176,-0.879c0.158,0.104 0.359,0.139 0.536,0.167c0.015,-0.094 0.022,-0.216 0.038,-0.354c0.003,0.002 0.007,0.004 0.01,0.005c0.002,-0.05 0.009,-0.103 0.006,-0.154Z" style="fill:none;stroke:#fff;stroke-width:0.46px;"/><path d="M50.812,34.827c-0.277,-0.018 -0.584,0.055 -0.842,0.082c-0.379,0.039 -0.76,0.056 -1.141,0.07c-0.019,0.001 -0.039,-0.001 -0.059,-0.004c-0.104,0.175 -0.221,0.296 -0.349,0.296c-0.217,0 -0.408,-0.04 -0.572,-0.12c-0.027,0.283 0.033,0.645 0.05,0.827c0.038,0.435 0.069,0.872 0.095,1.307c0.023,0.376 0.195,1.835 0.23,2.19c0.03,0.298 -0.184,0.53 -0.296,0.803c-0.077,0.186 -0.208,0.632 -0.013,0.642c0.158,0.008 0.191,0.074 0.258,0.09c0.273,-0.008 0.597,-0.016 0.822,-0.117c0.139,-0.063 0.195,-0.196 0.327,-0.242c0.068,-0.023 0.195,0.04 0.256,-0.002c0.067,-0.047 0.045,-0.256 0.133,-0.267c0.193,-0.026 0.127,0.351 0.329,0.096c0.084,-0.107 0.267,-0.347 0.325,-0.489c0.11,-0.269 0.197,-0.484 0.345,-0.588c0.07,-0.05 0.125,-0.061 0.258,-0.061c0.151,0 0.292,-0.114 0.278,-0.433c-0.011,-0.361 -0.363,-3.327 -0.434,-4.08Z" style="fill:none;stroke:#fff;stroke-width:0.5px;"/><path d="M46.309,43.281c0.001,-0.001 0.001,-0.002 0.001,-0.004l0,0c0,0.002 0,0.003 -0.001,0.004Z" style="fill:none;stroke:#fff;stroke-width:0.46px;"/><path d="M53.332,39.204c-0.194,-0.035 -0.378,0.025 -0.55,0.063c-0.205,0.045 -0.693,0.127 -0.872,0.022c-0.156,-0.091 -0.356,-0.648 -0.664,-0.382c0.014,0.319 -0.127,0.433 -0.278,0.433c-0.133,0 -0.188,0.011 -0.258,0.061c-0.148,0.104 -0.235,0.319 -0.345,0.588c-0.058,0.142 -0.241,0.382 -0.325,0.489c-0.202,0.255 -0.136,-0.122 -0.329,-0.096c-0.088,0.011 -0.066,0.22 -0.133,0.267c-0.061,0.042 -0.188,-0.021 -0.256,0.002c-0.132,0.046 -0.188,0.179 -0.327,0.242c-0.225,0.102 -0.549,0.109 -0.822,0.117c-0.058,-0.013 -0.091,-0.065 -0.202,-0.084c-0.007,0.005 -0.015,0.01 -0.022,0.013c0.247,0.095 0.118,0.43 -0.002,0.589c-0.138,0.183 -0.364,0.249 -0.592,0.279c0.074,0.11 0.243,0.596 -0.014,0.547c-0.155,-0.029 -0.326,-0.268 -0.446,-0.37c-0.123,0.069 -0.25,0.142 -0.375,0.206c-0.007,0.004 -0.014,0.009 -0.022,0.013c0.099,0.139 0.186,0.211 0.203,0.267c0.053,0.181 -0.264,0.339 -0.313,0.506c-0.028,0.096 -0.054,0.197 -0.078,0.301l1.677,-0.211c0,0 -0.033,-0.158 -0.022,-0.402c1.982,-0.063 3.811,-0.275 5.209,-0.452c0.034,-0.035 0.064,-0.067 0.086,-0.095c0.128,-0.165 0.3,-0.376 0.446,-0.526c0.177,-0.182 0.714,-0.664 0.822,-0.779c0,0 -0.66,-0.22 -0.624,-1.526c-0.008,0.001 -0.015,0.002 -0.022,0.003c-0.159,0.015 -0.391,-0.055 -0.55,-0.085Z" style="fill:none;stroke:#fff;stroke-width:0.46px;"/><path d="M47.28,29.763c0.007,0.037 0.013,0.074 0.019,0.11c0.032,-0.052 0.059,-0.102 0.076,-0.149c0.153,-0.424 0.177,-0.713 0.319,-0.839c0.465,-0.413 3.092,-0.386 2.672,-0.911c-0.099,-0.124 -0.629,-0.128 -0.775,-0.082c0.061,-0.221 0.075,-0.258 -0.193,-0.258c-0.343,0 -0.768,0.533 -1.492,0.553c-0.298,0.009 -0.624,-0.291 -1.051,-0.402c-0.321,-0.083 -0.598,0.235 -0.646,-0.257c-0.549,0.09 -1.219,0.638 -1.786,0.785c0.161,0.088 0.319,0.176 0.503,0.221c0.306,0.075 1.154,0.398 1.574,0.43c0.883,0.067 0.707,0.398 0.78,0.799Z" style="fill:none;stroke:#fff;stroke-width:0.46px;"/><path d="M44.496,28.292c0.013,-0.004 0.025,-0.008 0.037,-0.012c-0.012,0.004 -0.024,0.008 -0.037,0.012Z" style="fill:none;stroke:#fff;stroke-width:0.5px;"/><path d="M44.568,28.268c0.009,-0.004 0.019,-0.007 0.029,-0.011c-0.01,0.004 -0.02,0.007 -0.029,0.011Z" style="fill:none;stroke:#fff;stroke-width:0.5px;"/><path d="M47.451,31.028c-0.171,-0.103 -0.312,0.03 -0.378,-0.116c-0.075,-0.169 -0.105,-0.42 -0.024,-0.63c0.052,-0.131 0.186,-0.297 0.271,-0.445c-0.007,0.012 -0.014,0.024 -0.021,0.036c-0.006,-0.036 -0.012,-0.073 -0.019,-0.11c-0.073,-0.401 0.103,-0.732 -0.78,-0.799c-0.42,-0.032 -1.268,-0.355 -1.574,-0.43c-0.184,-0.045 -0.342,-0.133 -0.503,-0.221c0.008,-0.002 0.016,-0.004 0.024,-0.007c-0.11,0.031 -0.217,0.048 -0.318,0.043c-0.326,-0.015 -0.208,-0.231 -0.517,-0.285c-0.307,-0.054 -0.686,0.193 -0.989,0.086c0,0.4 0.029,0.755 0.015,1.033c-0.729,0.34 -0.416,0.88 -0.319,0.921c-0.01,0.177 -0.041,0.636 0.01,0.793c0.106,0.321 0.326,0.42 0.582,0.637c0.189,0.16 0.393,0.43 0.604,0.671c0.312,0.357 0.66,0.959 0.42,1.363c0.227,0.234 0.434,0.525 0.647,0.737c0.383,0.011 1.814,-0.047 2.617,-0.134c-0.042,-0.208 -0.063,-0.446 -0.063,-0.715c0,-0.379 -0.034,-1.273 0.075,-1.643c0.042,-0.141 0.149,-0.179 0.215,-0.268c0.156,-0.207 0.261,-0.374 0.025,-0.517Z" style="fill:none;stroke:#fff;stroke-width:0.5px;"/><path d="M44.633,28.244c0.009,-0.004 0.019,-0.008 0.028,-0.012c-0.009,0.004 -0.019,0.008 -0.028,0.012Z" style="fill:none;stroke:#fff;stroke-width:0.55px;"/><path d="M44.582,34.305c-0.118,-0.117 -0.233,-0.258 -0.352,-0.4l-0.295,-0.337c0.128,-0.217 0.088,-0.49 -0.025,-0.753c-1.891,0.085 -5.385,0.127 -5.385,0.127c0,0 0.007,0.968 -0.315,1.207c0.38,0.392 0.739,1.667 0.875,2.481c0.086,0.506 0.019,0.748 0.019,0.748l0.219,0l4.533,-0.039c0,0 0.046,-0.188 0.165,-0.404c0.12,-0.217 0.345,-0.216 0.129,-0.831c0.238,-0.078 0.76,-0.502 0.852,-0.871c0.1,-0.402 -0.42,-0.928 -0.42,-0.928Z" style="fill:none;stroke:#fff;stroke-width:0.46px;"/><path d="M43.515,32.205c-0.211,-0.241 -0.415,-0.511 -0.604,-0.671c-0.256,-0.217 -0.476,-0.316 -0.582,-0.637c-0.051,-0.157 -0.02,-0.616 -0.011,-0.793c-0.096,-0.041 -0.409,-0.581 0.32,-0.921c0.014,-0.278 -0.015,-0.633 -0.015,-1.033c-0.038,-0.013 -0.075,-0.032 -0.11,-0.058c-0.238,-0.173 1.457,-1.513 1.988,-1.793c-0.218,-0.204 -0.479,-0.314 -0.738,-0.274c-0.191,0.03 -0.364,0.217 -0.566,0.137c-0.604,-0.239 -0.806,-0.566 -1.013,-0.645c-0.234,-0.091 -0.498,0.125 -0.954,0.055c-0.77,-0.117 -1.271,-0.229 -1.218,-0.81c-0.324,0.489 -0.597,0.391 -1.11,0.391c-0.224,0 -0.594,-0.008 -1.043,-0.023c0.061,0.554 0.174,1.581 0.284,2.538c0.071,0.623 0.269,1.296 0.231,1.653c-0.015,0.141 -0.17,0.452 -0.164,0.593c0.005,0.113 0.078,0.234 0.229,0.346c0.022,0.57 0.057,1.049 0.086,2.682l2.155,-0.035l3.23,-0.092c-0.098,-0.226 -0.25,-0.445 -0.395,-0.61Z" style="fill:none;stroke:#fff;stroke-width:0.5px;"/><path d="M38.493,25.148c0.036,0.001 0.071,0.001 0.104,0.002c-0.033,-0.001 -0.068,-0.001 -0.104,-0.002Z" style="fill:none;stroke:#fff;stroke-width:0.5px;"/><path d="M38.143,27.668c-0.11,-0.957 -0.223,-1.984 -0.284,-2.538c0.078,0.003 0.153,0.005 0.226,0.007c-1.336,-0.04 -3.593,-0.148 -4.657,-0.252c-0.435,-0.042 -1.256,-0.108 -2.178,-0.186l-0.362,4.444l7.486,0.178c0.038,-0.357 -0.16,-1.03 -0.231,-1.653Z" style="fill:none;stroke:#fff;stroke-width:0.5px;"/><path d="M38.093,25.137c0.043,0.002 0.085,0.003 0.126,0.004c-0.041,-0.001 -0.083,-0.002 -0.126,-0.004Z" style="fill:none;stroke:#fff;stroke-width:0.5px;"/><path d="M38.368,25.145c0.038,0.001 0.075,0.002 0.111,0.002c-0.036,0 -0.072,-0.001 -0.111,-0.002Z" style="fill:none;stroke:#fff;stroke-width:0.5px;"/><path d="M38.236,25.141c0.041,0.001 0.08,0.003 0.118,0.003c-0.038,0 -0.077,-0.002 -0.118,-0.003Z" style="fill:none;stroke:#fff;stroke-width:0.5px;"/><path d="M38.525,32.942c-0.029,-1.633 -0.065,-2.112 -0.086,-2.682c-0.151,-0.112 -0.224,-0.233 -0.229,-0.346c-0.006,-0.141 0.149,-0.452 0.164,-0.593l-7.486,-0.178l-0.345,4.224c0,0 4.335,0.221 5.735,0.34c0.203,0.017 0.503,0.233 0.706,0.241c0.117,0.004 0.39,-0.061 0.507,-0.062c0.208,-0.001 0.719,0.263 0.719,0.263l0.08,-0.082c0.241,-0.325 0.235,-1.125 0.235,-1.125Z" style="fill:none;stroke:#fff;stroke-width:0.5px;"/><path d="M23.833,29.53c-0.151,1.162 -0.761,4.373 -0.761,4.373l-0.28,1.52c0,0 2.411,0.332 3.804,0.545c1.361,0.207 3.74,0.383 3.74,0.383l0.207,-2.985l0.245,-2.994c0,0 -4.463,-0.417 -6.955,-0.842Z" style="fill:none;stroke:#fff;stroke-width:0.5px;"/><path d="M31.25,24.699c-1.467,-0.124 -3.192,-0.28 -4.036,-0.423c-1.061,-0.181 -1.993,-0.336 -2.978,-0.482c0,0 -1.718,-0.29 -2.371,-0.418c-0.37,-0.071 -1.14,-0.225 -1.937,-0.396c-0.045,0.335 -0.077,0.684 -0.11,0.912c-0.039,0.269 -0.011,0.363 0.1,0.609c0.173,0.386 0.043,0.464 0.043,0.656c0,0.283 0.673,1.242 0.711,1.281c0.056,0.058 0.228,0.142 0.259,0.209c0.089,0.195 -0.067,0.307 -0.19,0.436c-0.035,0.036 -0.18,0.129 -0.202,0.194c-0.039,0.115 0.061,0.204 0.069,0.23c0.033,0.113 0.034,0.594 0.003,0.739c0.241,-0.02 0.403,-0.087 0.596,-0.198c0.068,0.163 0.11,0.485 0.191,0.744c0.068,0.216 0.139,0.429 0.181,0.647c0.029,0.152 0.122,0.533 0.178,0.642c0.139,0.268 0.903,0.1 1.175,0.101c0.261,0.001 0.587,-0.133 0.83,-0.158c0.029,-0.187 0.053,-0.355 0.071,-0.494c2.492,0.425 6.955,0.842 6.955,0.842l0.1,-1.229l0.362,-4.444Z" style="fill:none;stroke:#fff;stroke-width:0.5px;"/><path d="M22.896,34.856l0.176,-0.953c-0.06,0.321 -0.125,0.67 -0.177,0.953c0,0 0.001,0 0.001,0Z" style="fill:none;stroke:#fff;stroke-width:0.5px;"/><path d="M19.769,34.481l0.199,-1.114l-0.199,1.114Z" style="fill:none;stroke:#fff;stroke-width:0.5px;"/><path d="M22.932,30.182c-0.272,-0.001 -1.036,0.167 -1.175,-0.101c-0.056,-0.109 -0.149,-0.49 -0.178,-0.642c-0.042,-0.218 -0.113,-0.431 -0.181,-0.647c-0.081,-0.259 -0.123,-0.581 -0.19,-0.744c-0.194,0.111 -0.356,0.178 -0.597,0.198c0.031,-0.145 0.03,-0.626 -0.003,-0.739c-0.008,-0.026 -0.108,-0.115 -0.069,-0.23c0.022,-0.065 0.167,-0.158 0.202,-0.194c0.123,-0.129 0.279,-0.241 0.19,-0.436c-0.031,-0.067 -0.203,-0.151 -0.259,-0.209c-0.038,-0.039 -0.711,-0.998 -0.711,-1.281c0,-0.192 0.13,-0.27 -0.043,-0.656c-0.111,-0.246 -0.139,-0.34 -0.1,-0.609c0.033,-0.228 0.065,-0.577 0.11,-0.912c0.01,0.002 0.02,0.004 0.029,0.007c-0.327,-0.071 -0.66,-0.144 -0.972,-0.216c-0.057,0.229 -0.122,0.458 -0.167,0.68c-0.094,0.462 -0.619,3.342 -0.517,3.486c0.245,0.343 0.177,0.301 0.216,0.522c0.057,0.328 -0.647,1.207 -0.948,1.788c0.143,0.268 0.221,0.353 0.222,0.402c-0.107,0.201 -0.215,0.505 -0.337,0.79c-0.196,0.457 -0.604,1.408 -0.571,2.262c1.601,0.374 3.085,0.666 3.085,0.666c0,0 2.048,0.469 3.104,0.536c0,0 0.474,-2.491 0.69,-3.879c-0.243,0.025 -0.569,0.159 -0.83,0.158Z" style="fill:none;stroke:#fff;stroke-width:0.46px;"/><path d="M19.468,22.88c-0.003,-0.001 -0.006,-0.001 -0.009,-0.002c0.003,0.001 0.006,0.001 0.009,0.002Z" style="fill:none;stroke:#fff;stroke-width:0.5px;"/><path d="M17.657,26.712c0.218,0.06 0.425,0.16 0.631,0.135c-0.005,-0.517 0.443,-2.972 0.53,-3.396c0.045,-0.222 0.11,-0.451 0.167,-0.68c0.002,0 0.004,0.001 0.006,0.001c-0.502,-0.116 -0.949,-0.228 -1.236,-0.319c-0.726,-0.231 -1.49,-0.403 -2.069,-0.551c-0.298,-0.077 -1.21,-0.446 -1.598,-0.371c-0.264,0.051 -0.024,0.618 -0.025,0.877c-0.002,0.34 -0.136,0.249 -0.288,0.477c-0.07,0.106 -0.073,0.428 -0.215,0.611c-0.19,0.245 -0.82,0.205 -0.719,0.104c0.317,-0.313 1.262,-0.789 0.467,-1.19c-0.142,-0.072 -0.395,-0.012 -0.553,-0.061c-0.122,-0.039 -0.845,-0.804 -1.077,-0.611c-0.144,0.119 0.263,0.362 0.237,0.803c-0.022,0.366 -0.519,1.329 -0.164,1.316c0.487,-0.018 0.139,0.411 0.228,0.652c0.087,0.234 0.518,0.104 0.331,0.313c-0.086,0.096 -0.27,0.09 -0.435,0.101c0.206,0.111 0.45,0.219 0.614,0.275c-0.086,0.335 -0.023,0.695 0.232,0.889c0.277,0.21 0.842,-0.006 1.157,0.106c0.143,0.051 0.178,0.133 0.302,0.215c0.166,0.11 0.742,0.05 0.939,0.019c0.358,-0.056 0.874,-0.055 1.024,-0.033c0.174,0.026 0.637,0.118 0.811,0.146c0.347,0.054 0.403,0.09 0.703,0.172Z" style="fill:none;stroke:#fff;stroke-width:0.5px;"/><path d="M11.876,24.923c0.055,-0.004 0.112,-0.006 0.166,-0.01c-0.054,0.004 -0.111,0.006 -0.166,0.01Z" style="fill:none;stroke:#fff;stroke-width:0.46px;"/><path d="M17.454,30.439c0.122,-0.285 0.23,-0.589 0.337,-0.79c-0.001,-0.049 -0.079,-0.134 -0.222,-0.402c0.301,-0.581 1.006,-1.46 0.948,-1.788c-0.039,-0.221 0.029,-0.179 -0.216,-0.522c-0.008,-0.011 -0.012,-0.043 -0.013,-0.09c-0.207,0.025 -0.413,-0.075 -0.631,-0.135c-0.3,-0.082 -0.356,-0.118 -0.703,-0.172c-0.174,-0.028 -0.637,-0.12 -0.811,-0.146c-0.15,-0.022 -0.666,-0.023 -1.024,0.033c-0.197,0.031 -0.773,0.091 -0.939,-0.019c-0.124,-0.082 -0.159,-0.164 -0.302,-0.215c-0.315,-0.112 -0.88,0.104 -1.157,-0.106c-0.255,-0.194 -0.318,-0.554 -0.232,-0.889c-0.164,-0.056 -0.408,-0.164 -0.614,-0.275c-0.118,0.008 -0.227,0.024 -0.284,0.093c-0.047,0.056 -0.015,0.291 -0.072,0.461c0,0 -0.129,0.045 -0.18,0.327c-0.046,0.254 -0.118,0.69 -0.24,0.926c-0.113,0.22 -0.207,0.156 -0.304,0.39c-0.14,0.339 -0.125,0.965 -0.368,1.276c-0.286,0.365 -0.548,0.574 -0.646,1.064c-0.095,0.473 -0.135,0.757 -0.15,1.15c0.687,0.207 3.255,0.981 4.324,1.304c0.959,0.29 2.928,0.787 2.928,0.787c-0.033,-0.854 0.375,-1.805 0.571,-2.262Z" style="fill:none;stroke:#fff;stroke-width:0.5px;"/><path d="M22.896,34.856l0.176,-0.953c-0.06,0.321 -0.125,0.67 -0.177,0.953c0,0 0.001,0 0.001,0Z" style="fill:none;stroke:#fff;stroke-width:0.5px;"/><path d="M16.529,47.05c0.157,-0.123 0.299,-0.276 0.357,-0.442c0.068,-0.195 0.012,-0.252 -0.021,-0.425c-0.04,-0.205 0.048,-0.53 0.15,-0.692c0.189,-0.3 0.604,-0.652 0.776,-0.961c-0.14,-0.268 -0.189,-0.458 -0.258,-0.805c-0.001,-0.004 -0.002,-0.008 -0.002,-0.012c0,0.003 0,0.005 0.001,0.007l-4.784,-7.493c0,0 0.819,-2.905 1.207,-4.313l-4.324,-1.304c-0.006,0.168 -0.008,0.357 -0.008,0.589c0,0.323 -0.024,0.688 -0.216,0.953c-0.173,0.241 -0.526,0.522 -0.531,0.79c-0.005,0.237 0.126,0.433 0.186,0.685c0.074,0.309 0.099,0.656 0.044,0.969c0,0 -0.098,0.521 -0.108,0.715c-0.016,0.3 0.061,0.347 0.275,0.497c0.423,0.296 0.246,0.565 0.116,0.974c0.18,0.039 0.346,-0.111 0.531,-0.103c0.146,0.007 0.368,0.071 0.499,0.152c0.158,0.097 0.295,0.339 0.024,0.312c-0.21,-0.02 -0.285,-0.268 -0.537,-0.175c-0.024,0.125 0.039,0.233 0.045,0.355c0.013,0.255 -0.15,0.282 -0.216,0.474c-0.049,0.143 0.041,0.218 0.109,0.369c0.132,0.296 0.272,0.657 0.172,0.989c-0.117,0.39 -0.186,0.617 0.043,0.982c0.19,0.302 0.373,0.575 0.55,0.897c0.16,0.29 0.183,0.676 0.118,1.009c-0.073,0.377 -0.183,0.542 0.237,0.705c0.223,0.086 0.749,0.13 0.906,0.312c0.086,0.098 0.081,0.242 0.194,0.358c0.097,0.101 0.236,0.262 0.447,0.262c0.161,0 0.428,0.325 0.377,0.649c0.841,0 1.091,1.624 1.045,2.056c1.73,0.096 2.021,0.322 2.596,0.665Z" style="fill:none;stroke:#fff;stroke-width:0.46px;"/><path d="M61.66,33.67c-0.04,-0.014 -0.08,-0.028 -0.116,-0.043c0.036,0.015 0.075,0.029 0.116,0.043Z" style="fill:none;stroke:#fff;stroke-width:0.46px;"/><path d="M62.702,33.629c0.041,-0.05 0.083,-0.093 0.126,-0.133c-0.011,0.01 -0.022,0.019 -0.033,0.03c-0.146,-0.087 -0.362,-0.495 -0.362,-1.226c0,0 -0.01,-0.265 -0.02,-0.483c-0.01,-0.218 -0.022,-0.391 -0.022,-0.559c0,0 -0.34,-1.917 -0.697,-3.093c0.03,0 0.059,-0.001 0.088,-0.001c-0.571,0.007 -1.226,0.044 -1.758,0.432c-0.526,0.384 -0.695,0.986 -0.786,1.552c-0.103,0.637 -0.09,1.218 -0.564,1.352c-0.242,0.068 -0.719,0.12 -0.791,0.041c-0.126,-0.137 -0.298,-0.108 -0.509,-0.08c-0.058,0.008 -0.615,0.162 -0.665,0.294c-0.135,0.356 0.276,0.416 0.125,0.684c-0.086,0.154 -0.384,0.378 -0.496,0.514c-0.11,0.135 -0.227,0.284 -0.349,0.435l0,0l0.13,0.388c0,0 2.892,-0.524 4.401,-0.985c0.208,0.318 0.47,0.628 0.47,0.628c0,0 0.704,-0.069 0.675,0.253c0.22,0.076 0.488,0.148 0.726,0.208c0.009,0.151 0.008,0.301 0.006,0.45c-0.22,0.078 1.018,-0.279 1.291,-0.729c-0.307,-0.027 -0.706,0.078 -0.986,0.028Z" style="fill:none;stroke:#fff;stroke-width:0.46px;"/><path d="M48.755,34.999c-0.001,0.001 -0.002,0.002 -0.003,0.003c0.001,-0.001 0.002,-0.002 0.003,-0.003Z" style="fill:none;stroke:#fff;stroke-width:0.46px;"/><path d="M50.81,34.814c0,0 0.778,-0.047 1.013,-0.084c0.126,-0.02 0.243,-0.039 0.354,-0.06c-0.23,-0.25 -0.163,-0.564 0.099,-1.008c0.237,-0.402 0.82,-0.207 0.497,-1.335c-0.198,-0.69 -0.422,-0.938 -0.712,-0.838c-0.184,0.064 -0.448,0.944 -0.745,0.556c-0.121,-0.157 -0.139,-0.69 0.018,-0.864c0.287,-0.318 0.205,-1.352 -0.157,-1.603c-0.13,-0.089 -0.313,0.023 -0.431,-0.078c-0.168,-0.142 -0.667,-0.554 -0.873,-0.279c-0.135,0.18 -0.038,0.982 -0.171,1.157c-0.28,0.365 -0.472,-0.097 -0.767,0.129c-0.05,0.039 -0.023,0.1 -0.054,0.289c-0.025,0.156 0.134,0.273 0.08,0.519c-0.058,0.263 -0.203,0.606 -0.166,0.711c0.23,0.64 0.643,1.068 0.366,1.955c-0.09,0.291 -0.396,1.002 -0.391,0.994c0.02,0.003 0.04,0.005 0.059,0.004c0.38,-0.014 0.762,-0.031 1.141,-0.07c0.258,-0.027 0.562,-0.085 0.84,-0.095Z" style="fill:none;stroke:#fff;stroke-width:0.46px;"/><path d="M47.949,40.939c0.007,-0.003 -0.013,-0.018 -0.034,-0.019c-0.195,-0.01 -0.064,-0.456 0.013,-0.642c0.112,-0.273 0.326,-0.505 0.296,-0.803c-0.036,-0.355 -0.207,-1.814 -0.23,-2.19c-0.026,-0.435 -0.057,-0.872 -0.095,-1.307c-0.017,-0.182 -0.077,-0.544 -0.05,-0.827c0.009,0.005 0.019,0.008 0.029,0.012c-0.36,-0.162 -0.594,-0.51 -0.691,-1.063c0.004,0.023 0.007,0.048 0.012,0.071c-0.803,0.087 -2.234,0.145 -2.617,0.134c0,0 0.52,0.526 0.42,0.928c-0.092,0.368 -0.614,0.793 -0.852,0.871c0.216,0.615 -0.009,0.614 -0.129,0.831c-0.119,0.217 -0.165,0.404 -0.165,0.404c0.007,0.385 -0.007,0.93 0.294,1.265c0.202,0.223 0.439,0.196 0.588,0.413c0.138,0.201 0.211,0.388 0.232,0.589c0.269,-0.06 0.389,0.085 0.489,0.212c-0.18,0.228 -0.216,0.656 -0.159,0.827c0.056,0.166 0.171,0.117 0.317,0.22c0.133,0.094 0.308,0.234 0.394,0.369c0.134,0.206 0.229,0.421 0.316,0.648c0.053,0.137 0.114,0.24 0.172,0.321c0.007,-0.004 0.014,-0.009 0.021,-0.013c0.125,-0.064 0.252,-0.137 0.375,-0.206c0.12,0.102 0.291,0.341 0.446,0.37c0.257,0.049 0.088,-0.437 0.014,-0.547c0.228,-0.03 0.454,-0.096 0.592,-0.279c0.121,-0.159 0.249,-0.494 0.002,-0.589Z" style="fill:none;stroke:#fff;stroke-width:0.5px;"/><path d="M44.582,34.305c-0.118,-0.117 -0.233,-0.258 -0.352,-0.4l-0.295,-0.337c0.128,-0.217 0.088,-0.49 -0.025,-0.753c-1.891,0.085 -5.385,0.127 -5.385,0.127c0,0 0.007,0.968 -0.315,1.207c0.38,0.392 0.739,1.667 0.875,2.481c0.086,0.506 0.019,0.748 0.019,0.748l0.219,0l4.533,-0.039c0,0 0.046,-0.188 0.165,-0.404c0.12,-0.217 0.345,-0.216 0.129,-0.831c0.238,-0.078 0.76,-0.502 0.852,-0.871c0.1,-0.402 -0.42,-0.928 -0.42,-0.928Z" style="fill:none;stroke:#fff;stroke-width:0.5px;"/><path d="M44.582,34.305c-0.118,-0.117 -0.233,-0.258 -0.352,-0.4l-0.295,-0.337c0.128,-0.217 0.088,-0.49 -0.025,-0.753c-1.891,0.085 -5.385,0.127 -5.385,0.127c0,0 0.007,0.968 -0.315,1.207c0.38,0.392 0.739,1.667 0.875,2.481c0.086,0.506 0.019,0.748 0.019,0.748l0.219,0l4.533,-0.039c0,0 0.046,-0.188 0.165,-0.404c0.12,-0.217 0.345,-0.216 0.129,-0.831c0.238,-0.078 0.76,-0.502 0.852,-0.871c0.1,-0.402 -0.42,-0.928 -0.42,-0.928Z" style="fill:none;stroke:#fff;stroke-width:0.46px;"/></g></svg>